Spira-ProtoRoman110R-1.1.ufo
<glyph name="ampersand" format="2">
	<advance width="788"/>
	<unicode hex="0026"/>
	<outline>
		<contour>
			<point x="253" y="-10" type="curve"/>
			<point x="253" y="-10" type="line"/>
			<point x="351" y="-10"/>
			<point x="409" y="55"/>
			<point x="461" y="137" type="curve"/>
			<point x="502" y="70"/>
			<point x="542" y="-10"/>
			<point x="632" y="-10" type="curve"/>
			<point x="704" y="-10"/>
			<point x="732" y="48"/>
			<point x="743" y="117" type="curve"/>
			<point x="720" y="124" type="line"/>
			<point x="703" y="94"/>
			<point x="678" y="84"/>
			<point x="655" y="84" type="curve"/>
			<point x="598" y="84"/>
			<point x="564" y="163"/>
			<point x="528" y="218" type="curve"/>
			<point x="674" y="407" type="line" smooth="yes"/>
			<point x="692" y="431"/>
			<point x="712" y="453"/>
			<point x="731" y="456" type="curve"/>
			<point x="731" y="484" type="line"/>
			<point x="723" y="483"/>
			<point x="594" y="483"/>
			<point x="594" y="483" type="curve"/>
			<point x="594" y="455" type="line"/>
			<point x="620" y="455"/>
			<point x="629" y="444"/>
			<point x="618" y="426" type="curve"/>
			<point x="507" y="245" type="line"/>
			<point x="465" y="309"/>
			<point x="399" y="357"/>
			<point x="324" y="383" type="curve"/>
			<point x="379" y="401"/>
			<point x="423" y="449"/>
			<point x="423" y="495" type="curve"/>
			<point x="423" y="559"/>
			<point x="379" y="593"/>
			<point x="314" y="593" type="curve"/>
			<point x="233" y="593"/>
			<point x="136" y="546"/>
			<point x="136" y="461" type="curve"/>
			<point x="136" y="408"/>
			<point x="169" y="362"/>
			<point x="231" y="348" type="curve"/>
			<point x="145" y="315"/>
			<point x="65" y="247"/>
			<point x="65" y="156" type="curve"/>
			<point x="65" y="48"/>
			<point x="149" y="-10"/>
		</contour>
		<contour>
			<point x="292" y="393" type="curve"/>
			<point x="292" y="393" type="line"/>
			<point x="247" y="411"/>
			<point x="215" y="440"/>
			<point x="215" y="485" type="curve"/>
			<point x="215" y="526"/>
			<point x="238" y="552"/>
			<point x="278" y="552" type="curve"/>
			<point x="319" y="552"/>
			<point x="342" y="520"/>
			<point x="342" y="480" type="curve"/>
			<point x="342" y="455"/>
			<point x="329" y="419"/>
		</contour>
		<contour>
			<point x="288" y="54" type="curve"/>
			<point x="288" y="54" type="line"/>
			<point x="206" y="54"/>
			<point x="160" y="100"/>
			<point x="160" y="183" type="curve"/>
			<point x="160" y="251"/>
			<point x="198" y="302"/>
			<point x="266" y="337" type="curve"/>
			<point x="345" y="321"/>
			<point x="406" y="225"/>
			<point x="445" y="160" type="curve"/>
			<point x="407" y="110"/>
			<point x="355" y="54"/>
		</contour>
	</outline>
</glyph>
<glyph name="hyphen" format="2">
	<advance width="330"/>
	<unicode hex="002D"/>
	<outline>
		<contour>
			<point x="30" y="173" type="line"/>
			<point x="30" y="117" type="line"/>
			<point x="39" y="117" type="line"/>
			<point x="300" y="378" type="line"/>
			<point x="300" y="481" type="line"/>
			<point x="290" y="481" type="line"/>
		</contour>
	</outline>
</glyph>
<glyph name="period" format="2">
	<advance width="171"/>
	<unicode hex="002E"/>
	<outline>
		<contour>
			<point x="81" y="-10" type="line"/>
			<point x="89" y="-10" type="line"/>
			<point x="151" y="55" type="line"/>
			<point x="151" y="62" type="line"/>
			<point x="90" y="126" type="line"/>
			<point x="82" y="126" type="line"/>
			<point x="20" y="62" type="line"/>
			<point x="20" y="55" type="line"/>
		</contour>
	</outline>
</glyph>
<glyph name="question" format="2">
	<advance width="278"/>
	<unicode hex="003F"/>
	<outline>
		<contour>
			<point x="40" y="339" type="line"/>
			<point x="107" y="266" type="line"/>
			<point x="116" y="266" type="line"/>
			<point x="186" y="340" type="line"/>
			<point x="186" y="348" type="line"/>
			<point x="173" y="360"/>
			<point x="154" y="373"/>
			<point x="154" y="389" type="curve"/>
			<point x="154" y="420"/>
			<point x="218" y="465"/>
			<point x="218" y="524" type="curve"/>
			<point x="218" y="610" type="line" smooth="yes"/>
			<point x="218" y="645"/>
			<point x="251" y="669"/>
			<point x="268" y="683" type="curve"/>
			<point x="268" y="688" type="line"/>
			<point x="227" y="730" type="line"/>
			<point x="223" y="730" type="line"/>
			<point x="191" y="713"/>
			<point x="175" y="674"/>
			<point x="175" y="645" type="curve"/>
			<point x="175" y="609"/>
			<point x="183" y="578"/>
			<point x="183" y="520" type="curve"/>
			<point x="183" y="463"/>
			<point x="100" y="413"/>
			<point x="40" y="347" type="curve"/>
		</contour>
		<contour>
			<point x="56" y="55" type="line"/>
			<point x="117" y="-10" type="line"/>
			<point x="125" y="-10" type="line"/>
			<point x="187" y="55" type="line"/>
			<point x="187" y="62" type="line"/>
			<point x="126" y="126" type="line"/>
			<point x="118" y="126" type="line"/>
			<point x="56" y="62" type="line"/>
		</contour>
	</outline>
</glyph>
<glyph name="A" format="2">
	<advance width="758"/>
	<unicode hex="0041"/>
	<anchor x="682" y="34" name="ogonek"/>
	<anchor x="379" y="25" name="bottom"/>
	<anchor x="379" y="722" name="top"/>
	<outline>
		<contour>
			<point x="720" y="96" type="curve"/>
			<point x="720" y="96" type="line"/>
			<point x="469" y="621" type="line" smooth="yes"/>
			<point x="453" y="654"/>
			<point x="441" y="676"/>
			<point x="436" y="697" type="curve"/>
			<point x="350" y="697" type="line"/>
			<point x="340" y="667"/>
			<point x="335" y="656"/>
			<point x="317" y="622" type="curve"/>
			<point x="57" y="128" type="line" smooth="yes"/>
			<point x="39" y="97"/>
			<point x="22" y="65"/>
			<point x="0" y="37" type="curve"/>
			<point x="0" y="0" type="line"/>
			<point x="175" y="0" type="line"/>
			<point x="175" y="27" type="line"/>
			<point x="139" y="33" type="line" smooth="yes"/>
			<point x="110" y="38"/>
			<point x="107" y="62"/>
			<point x="126" y="102" type="curve"/>
			<point x="246" y="353" type="line"/>
			<point x="480" y="353" type="line"/>
			<point x="587" y="96" type="line" smooth="yes"/>
			<point x="601" y="62"/>
			<point x="600" y="47"/>
			<point x="574" y="38" type="curve"/>
			<point x="551" y="30" type="line"/>
			<point x="551" y="0" type="line"/>
			<point x="758" y="0" type="line"/>
			<point x="758" y="37" type="line"/>
			<point x="743" y="55"/>
			<point x="729" y="77"/>
		</contour>
		<contour>
			<point x="465" y="390" type="line"/>
			<point x="263" y="390" type="line"/>
			<point x="371" y="616" type="line"/>
		</contour>
	</outline>
</glyph>
<glyph name="B" format="2">
	<advance width="625"/>
	<unicode hex="0042"/>
	<anchor x="308" y="722" name="top"/>
	<anchor x="308" y="25" name="bottom"/>
	<outline>
		<contour>
			<point x="431" y="400" type="curve"/>
			<point x="495" y="423"/>
			<point x="558" y="469"/>
			<point x="558" y="542" type="curve" smooth="yes"/>
			<point x="558" y="659"/>
			<point x="441" y="700"/>
			<point x="318" y="700" type="curve" smooth="yes"/>
			<point x="233" y="700"/>
			<point x="156" y="701"/>
			<point x="61" y="706" type="curve"/>
			<point x="56" y="668" type="line"/>
			<point x="71" y="666" type="line" smooth="yes"/>
			<point x="92" y="663"/>
			<point x="105" y="656"/>
			<point x="106" y="628" type="curve" smooth="yes"/>
			<point x="112" y="451"/>
			<point x="115" y="249"/>
			<point x="102" y="71" type="curve" smooth="yes"/>
			<point x="100" y="43"/>
			<point x="90" y="38"/>
			<point x="70" y="35" type="curve" smooth="yes"/>
			<point x="50" y="32" type="line"/>
			<point x="50" y="-5" type="line"/>
			<point x="139" y="3"/>
			<point x="228" y="2"/>
			<point x="290" y="2" type="curve" smooth="yes"/>
			<point x="463" y="2"/>
			<point x="595" y="73"/>
			<point x="595" y="209" type="curve" smooth="yes"/>
			<point x="595" y="318"/>
			<point x="526" y="382"/>
		</contour>
		<contour>
			<point x="218" y="601" type="line" smooth="yes"/>
			<point x="219" y="646"/>
			<point x="252" y="667"/>
			<point x="296" y="667" type="curve" smooth="yes"/>
			<point x="403" y="667"/>
			<point x="441" y="604"/>
			<point x="441" y="532" type="curve" smooth="yes"/>
			<point x="441" y="454"/>
			<point x="372" y="404"/>
			<point x="280" y="404" type="curve" smooth="yes"/>
			<point x="213" y="404" type="line"/>
		</contour>
		<contour>
			<point x="305" y="44" type="curve" smooth="yes"/>
			<point x="258" y="44"/>
			<point x="230" y="53"/>
			<point x="211" y="66" type="curve"/>
			<point x="213" y="368" type="line"/>
			<point x="280" y="367" type="line" smooth="yes"/>
			<point x="404" y="365"/>
			<point x="479" y="297"/>
			<point x="479" y="202" type="curve" smooth="yes"/>
			<point x="479" y="112"/>
			<point x="420" y="44"/>
		</contour>
	</outline>
</glyph>
<glyph name="C" format="2">
	<advance width="749"/>
	<unicode hex="0043"/>
	<anchor x="375" y="722" name="top"/>
	<anchor x="375" y="25" name="bottom"/>
	<outline>
		<contour>
			<point x="437" y="-9" type="curve" smooth="yes"/>
			<point x="438" y="-9" type="line" smooth="yes"/>
			<point x="526" y="-9"/>
			<point x="622" y="8"/>
			<point x="707" y="34" type="curve"/>
			<point x="710" y="158" type="line"/>
			<point x="684" y="160" type="line"/>
			<point x="646" y="97"/>
			<point x="566" y="31"/>
			<point x="438" y="31" type="curve" smooth="yes"/>
			<point x="281" y="31"/>
			<point x="170" y="167"/>
			<point x="170" y="346" type="curve" smooth="yes"/>
			<point x="170" y="545"/>
			<point x="277" y="674"/>
			<point x="439" y="674" type="curve" smooth="yes"/>
			<point x="558" y="674"/>
			<point x="622" y="640"/>
			<point x="688" y="549" type="curve"/>
			<point x="714" y="549" type="line"/>
			<point x="714" y="674" type="line"/>
			<point x="625" y="682"/>
			<point x="541" y="710"/>
			<point x="438" y="710" type="curve" smooth="yes"/>
			<point x="201" y="710"/>
			<point x="45" y="556"/>
			<point x="45" y="346" type="curve" smooth="yes"/>
			<point x="45" y="130"/>
			<point x="187" y="-9"/>
		</contour>
	</outline>
</glyph>
<glyph name="D" format="2">
	<advance width="825"/>
	<unicode hex="0044"/>
	<anchor x="403" y="373" name="center"/>
	<anchor x="403" y="24" name="bottom"/>
	<anchor x="403" y="722" name="top"/>
	<outline>
		<contour>
			<point x="87" y="-8" type="line"/>
			<point x="99" y="-4"/>
			<point x="165" y="-1"/>
			<point x="188" y="-1" type="curve" smooth="yes"/>
			<point x="230" y="-1"/>
			<point x="255" y="-4"/>
			<point x="389" y="-4" type="curve" smooth="yes"/>
			<point x="622" y="-4"/>
			<point x="780" y="152"/>
			<point x="780" y="355" type="curve" smooth="yes"/>
			<point x="780" y="577"/>
			<point x="609" y="702"/>
			<point x="374" y="702" type="curve" smooth="yes"/>
			<point x="60" y="702" type="line"/>
			<point x="60" y="672" type="line"/>
			<point x="77" y="661"/>
			<point x="88" y="639"/>
			<point x="88" y="602" type="curve" smooth="yes"/>
			<point x="88" y="440"/>
			<point x="90" y="363"/>
			<point x="86" y="200" type="curve" smooth="yes"/>
			<point x="84" y="124"/>
			<point x="76" y="45"/>
			<point x="65" y="1" type="curve"/>
		</contour>
		<contour>
			<point x="368" y="29" type="curve" smooth="yes"/>
			<point x="289" y="29"/>
			<point x="247" y="33"/>
			<point x="201" y="44" type="curve"/>
			<point x="197" y="260"/>
			<point x="195" y="466"/>
			<point x="197" y="664" type="curve"/>
			<point x="489" y="691"/>
			<point x="644" y="588"/>
			<point x="649" y="355" type="curve" smooth="yes"/>
			<point x="654" y="157"/>
			<point x="540" y="29"/>
		</contour>
	</outline>
</glyph>
<glyph name="E" format="2">
	<advance width="657"/>
	<unicode hex="0045"/>
	<anchor x="599" y="34" name="ogonek"/>
	<anchor x="335" y="722" name="top"/>
	<anchor x="23" y="722" name="topleft"/>
	<anchor x="335" y="25" name="bottom"/>
	<outline>
		<contour>
			<point x="59" y="-4" type="line"/>
			<point x="114" y="2"/>
			<point x="459" y="6"/>
			<point x="582" y="0" type="curve"/>
			<point x="637" y="145" type="line"/>
			<point x="616" y="154" type="line"/>
			<point x="556" y="87"/>
			<point x="514" y="48"/>
			<point x="412" y="48" type="curve" smooth="yes"/>
			<point x="195" y="48" type="line"/>
			<point x="194" y="351" type="line"/>
			<point x="488" y="351" type="line"/>
			<point x="484" y="167" type="line"/>
			<point x="503" y="164" type="line"/>
			<point x="576" y="490" type="line"/>
			<point x="557" y="491" type="line"/>
			<point x="523" y="437" type="line" smooth="yes"/>
			<point x="508" y="413"/>
			<point x="490" y="401"/>
			<point x="465" y="401" type="curve" smooth="yes"/>
			<point x="193" y="401" type="line"/>
			<point x="194" y="661" type="line"/>
			<point x="503" y="659" type="line" smooth="yes"/>
			<point x="553" y="659"/>
			<point x="536" y="624"/>
			<point x="551" y="574" type="curve"/>
			<point x="575" y="574" type="line"/>
			<point x="579" y="616"/>
			<point x="586" y="659"/>
			<point x="598" y="701" type="curve"/>
			<point x="421" y="699"/>
			<point x="238" y="701"/>
			<point x="51" y="706" type="curve"/>
			<point x="50" y="669" type="line"/>
			<point x="79" y="656"/>
			<point x="86" y="656"/>
			<point x="87" y="630" type="curve" smooth="yes"/>
			<point x="94" y="460"/>
			<point x="92" y="234"/>
			<point x="86" y="64" type="curve" smooth="yes"/>
			<point x="85" y="35"/>
			<point x="77" y="35"/>
			<point x="52" y="20" type="curve"/>
		</contour>
	</outline>
</glyph>
<glyph name="F" format="2">
	<advance width="578"/>
	<unicode hex="0046"/>
	<anchor x="276" y="722" name="top"/>
	<anchor x="276" y="25" name="bottom"/>
	<outline>
		<contour>
			<point x="61" y="23" type="curve"/>
			<point x="62" y="-1" type="line"/>
			<point x="374" y="0" type="line"/>
			<point x="374" y="27" type="line"/>
			<point x="242" y="42" type="line" smooth="yes"/>
			<point x="197" y="47"/>
			<point x="193" y="49"/>
			<point x="193" y="103" type="curve"/>
			<point x="193" y="350" type="line"/>
			<point x="449" y="350" type="line" smooth="yes"/>
			<point x="478" y="350"/>
			<point x="479" y="339"/>
			<point x="494" y="308" type="curve"/>
			<point x="512" y="308" type="line"/>
			<point x="535" y="465" type="line"/>
			<point x="512" y="465" type="line"/>
			<point x="485" y="418"/>
			<point x="475" y="401"/>
			<point x="425" y="401" type="curve"/>
			<point x="192" y="401" type="line"/>
			<point x="193" y="658" type="line"/>
			<point x="333" y="656" type="line" smooth="yes"/>
			<point x="466" y="654"/>
			<point x="499" y="617"/>
			<point x="534" y="564" type="curve"/>
			<point x="558" y="564" type="line"/>
			<point x="556" y="696" type="line"/>
			<point x="556" y="696"/>
			<point x="215" y="698"/>
			<point x="216" y="697" type="curve"/>
			<point x="51" y="697" type="line"/>
			<point x="50" y="660" type="line"/>
			<point x="66" y="653" type="line" smooth="yes"/>
			<point x="79" y="647"/>
			<point x="85" y="640"/>
			<point x="86" y="600" type="curve"/>
			<point x="90" y="428"/>
			<point x="93" y="252"/>
			<point x="85" y="79" type="curve"/>
			<point x="84" y="56"/>
			<point x="79" y="40"/>
		</contour>
	</outline>
</glyph>
<glyph name="G" format="2">
	<advance width="775"/>
	<unicode hex="0047"/>
	<anchor x="385" y="722" name="top"/>
	<anchor x="385" y="25" name="bottom"/>
	<outline>
		<contour>
			<point x="437" y="-9" type="curve"/>
			<point x="437" y="-9" type="line"/>
			<point x="438" y="-9" type="line" smooth="yes"/>
			<point x="558" y="-9"/>
			<point x="678" y="13"/>
			<point x="739" y="21" type="curve"/>
			<point x="734" y="116"/>
			<point x="735" y="230"/>
			<point x="740" y="324" type="curve"/>
			<point x="656" y="322"/>
			<point x="572" y="323"/>
			<point x="488" y="325" type="curve"/>
			<point x="490" y="298" type="line"/>
			<point x="576" y="283" type="line" smooth="yes"/>
			<point x="621" y="275"/>
			<point x="633" y="243"/>
			<point x="633" y="208" type="curve"/>
			<point x="633" y="69" type="line"/>
			<point x="582" y="52"/>
			<point x="520" y="38"/>
			<point x="438" y="38" type="curve"/>
			<point x="281" y="38"/>
			<point x="170" y="167"/>
			<point x="170" y="346" type="curve"/>
			<point x="170" y="545"/>
			<point x="277" y="665"/>
			<point x="439" y="665" type="curve"/>
			<point x="558" y="665"/>
			<point x="628" y="631"/>
			<point x="672" y="538" type="curve"/>
			<point x="704" y="538" type="line"/>
			<point x="704" y="711" type="line"/>
			<point x="676" y="711" type="line"/>
			<point x="670" y="698"/>
			<point x="660" y="684"/>
			<point x="641" y="688" type="curve"/>
			<point x="590" y="699"/>
			<point x="524" y="710"/>
			<point x="438" y="710" type="curve"/>
			<point x="201" y="710"/>
			<point x="45" y="556"/>
			<point x="45" y="346" type="curve"/>
			<point x="45" y="130"/>
			<point x="201" y="-9"/>
		</contour>
	</outline>
</glyph>
<glyph name="H" format="2">
	<advance width="922"/>
	<unicode hex="0048"/>
	<anchor x="461" y="25" name="bottom"/>
	<anchor x="461" y="722" name="top"/>
	<anchor x="33" y="722" name="topleft"/>
	<anchor x="461" y="373" name="center"/>
	<outline>
		<contour>
			<point x="50" y="1" type="line"/>
			<point x="358" y="1" type="line"/>
			<point x="358" y="33" type="line"/>
			<point x="259" y="45" type="line" smooth="yes"/>
			<point x="229" y="49"/>
			<point x="220" y="49"/>
			<point x="219" y="77" type="curve" smooth="yes"/>
			<point x="216" y="165"/>
			<point x="212" y="252"/>
			<point x="214" y="349" type="curve"/>
			<point x="708" y="349" type="line"/>
			<point x="710" y="252"/>
			<point x="707" y="165"/>
			<point x="701" y="77" type="curve" smooth="yes"/>
			<point x="699" y="49"/>
			<point x="691" y="49"/>
			<point x="661" y="45" type="curve" smooth="yes"/>
			<point x="564" y="33" type="line"/>
			<point x="564" y="1" type="line"/>
			<point x="872" y="1" type="line"/>
			<point x="872" y="33" type="line"/>
			<point x="835" y="38" type="line" smooth="yes"/>
			<point x="823" y="40"/>
			<point x="815" y="47"/>
			<point x="815" y="70" type="curve" smooth="yes"/>
			<point x="815" y="631" type="line" smooth="yes"/>
			<point x="815" y="654"/>
			<point x="823" y="663"/>
			<point x="835" y="664" type="curve" smooth="yes"/>
			<point x="872" y="668" type="line"/>
			<point x="872" y="697" type="line"/>
			<point x="564" y="697" type="line"/>
			<point x="565" y="665" type="line"/>
			<point x="657" y="657" type="line" smooth="yes"/>
			<point x="696" y="654"/>
			<point x="705" y="653"/>
			<point x="706" y="618" type="curve" smooth="yes"/>
			<point x="708" y="545"/>
			<point x="710" y="472"/>
			<point x="708" y="399" type="curve"/>
			<point x="214" y="399" type="line"/>
			<point x="212" y="472"/>
			<point x="216" y="545"/>
			<point x="218" y="618" type="curve" smooth="yes"/>
			<point x="219" y="652"/>
			<point x="226" y="655"/>
			<point x="267" y="658" type="curve" smooth="yes"/>
			<point x="359" y="665" type="line"/>
			<point x="358" y="697" type="line"/>
			<point x="50" y="697" type="line"/>
			<point x="50" y="668" type="line"/>
			<point x="87" y="664" type="line" smooth="yes"/>
			<point x="99" y="663"/>
			<point x="107" y="654"/>
			<point x="107" y="631" type="curve" smooth="yes"/>
			<point x="107" y="70" type="line" smooth="yes"/>
			<point x="107" y="47"/>
			<point x="99" y="40"/>
			<point x="87" y="38" type="curve" smooth="yes"/>
			<point x="50" y="33" type="line"/>
		</contour>
	</outline>
</glyph>
<glyph name="I" format="2">
	<advance width="346"/>
	<unicode hex="0049"/>
	<anchor x="316" y="34" name="ogonek"/>
	<anchor x="173" y="722" name="top"/>
	<anchor x="13" y="722" name="topleft"/>
	<anchor x="173" y="25" name="bottom"/>
	<outline>
		<contour>
			<point x="59" y="0" type="line"/>
			<point x="296" y="0" type="line"/>
			<point x="296" y="25" type="line"/>
			<point x="248" y="32" type="line" smooth="yes"/>
			<point x="231" y="34"/>
			<point x="230" y="35"/>
			<point x="229" y="74" type="curve" smooth="yes"/>
			<point x="224" y="267"/>
			<point x="224" y="445"/>
			<point x="231" y="588" type="curve" smooth="yes"/>
			<point x="234" y="646"/>
			<point x="259" y="666"/>
			<point x="296" y="674" type="curve"/>
			<point x="296" y="700" type="line"/>
			<point x="50" y="700" type="line"/>
			<point x="50" y="670" type="line"/>
			<point x="97" y="663" type="line" smooth="yes"/>
			<point x="109" y="661"/>
			<point x="113" y="661"/>
			<point x="115" y="611" type="curve" smooth="yes"/>
			<point x="122" y="430"/>
			<point x="123" y="271"/>
			<point x="116" y="103" type="curve" smooth="yes"/>
			<point x="114" y="57"/>
			<point x="97" y="33"/>
			<point x="60" y="25" type="curve"/>
		</contour>
	</outline>
</glyph>
<glyph name="J" format="2">
	<advance width="288"/>
	<unicode hex="004A"/>
	<outline>
		<contour>
			<point x="6" y="-231" type="line"/>
			<point x="107" y="-129"/>
			<point x="197" y="-37"/>
			<point x="197" y="129" type="curve" smooth="yes"/>
			<point x="197" y="610" type="line" smooth="yes"/>
			<point x="197" y="645"/>
			<point x="213" y="663"/>
			<point x="238" y="673" type="curve"/>
			<point x="238" y="701" type="line"/>
			<point x="31" y="701" type="line"/>
			<point x="31" y="669" type="line"/>
			<point x="77" y="662" type="line" smooth="yes"/>
			<point x="89" y="660"/>
			<point x="95" y="656"/>
			<point x="95" y="641" type="curve" smooth="yes"/>
			<point x="97" y="101" type="line" smooth="yes"/>
			<point x="98" y="-40"/>
			<point x="59" y="-115"/>
			<point x="-25" y="-215" type="curve"/>
		</contour>
	</outline>
</glyph>
<glyph name="K" format="2">
	<advance width="634"/>
	<unicode hex="004B"/>
	<outline>
		<contour>
			<point x="265" y="407" type="curve"/>
			<point x="459" y="565" type="line" smooth="yes"/>
			<point x="514" y="609"/>
			<point x="570" y="662"/>
			<point x="622" y="675" type="curve"/>
			<point x="622" y="700" type="line"/>
			<point x="379" y="699" type="line"/>
			<point x="380" y="671" type="line"/>
			<point x="434" y="655"/>
			<point x="453" y="631"/>
			<point x="413" y="595" type="curve" smooth="yes"/>
			<point x="234" y="430" type="line"/>
			<point x="210" y="411" type="line"/>
			<point x="211" y="477"/>
			<point x="212" y="544"/>
			<point x="215" y="616" type="curve" smooth="yes"/>
			<point x="217" y="666"/>
			<point x="221" y="665"/>
			<point x="233" y="668" type="curve" smooth="yes"/>
			<point x="262" y="675" type="line"/>
			<point x="262" y="700" type="line"/>
			<point x="53" y="700" type="line"/>
			<point x="53" y="674" type="line"/>
			<point x="78" y="668"/>
			<point x="97" y="657"/>
			<point x="99" y="608" type="curve" smooth="yes"/>
			<point x="102" y="545"/>
			<point x="105" y="267"/>
			<point x="100" y="74" type="curve" smooth="yes"/>
			<point x="99" y="35"/>
			<point x="98" y="36"/>
			<point x="81" y="32" type="curve" smooth="yes"/>
			<point x="50" y="25" type="line"/>
			<point x="51" y="0" type="line"/>
			<point x="261" y="0" type="line"/>
			<point x="261" y="19" type="line"/>
			<point x="230" y="45"/>
			<point x="215" y="57"/>
			<point x="214" y="97" type="curve" smooth="yes"/>
			<point x="212" y="176"/>
			<point x="210" y="254"/>
			<point x="210" y="334" type="curve"/>
			<point x="289" y="259"/>
			<point x="349" y="189"/>
			<point x="426" y="86" type="curve" smooth="yes"/>
			<point x="453" y="50"/>
			<point x="440" y="35"/>
			<point x="398" y="26" type="curve"/>
			<point x="398" y="1" type="line"/>
			<point x="622" y="2" type="line"/>
			<point x="624" y="26" type="line"/>
			<point x="553" y="84"/>
			<point x="347" y="324"/>
		</contour>
	</outline>
</glyph>
<glyph name="L" format="2">
	<advance width="642"/>
	<unicode hex="004C"/>
	<anchor x="325" y="373" name="center"/>
	<anchor x="325" y="722" name="top"/>
	<anchor x="628" y="722" name="topright"/>
	<anchor x="325" y="25" name="bottom"/>
	<outline>
		<contour>
			<point x="50" y="23" type="curve"/>
			<point x="50" y="-1" type="line"/>
			<point x="239" y="2"/>
			<point x="411" y="2"/>
			<point x="592" y="-1" type="curve"/>
			<point x="632" y="169" type="line"/>
			<point x="606" y="174" type="line"/>
			<point x="564" y="99"/>
			<point x="494" y="66"/>
			<point x="410" y="60" type="curve"/>
			<point x="199" y="46" type="line"/>
			<point x="199" y="228"/>
			<point x="201" y="462"/>
			<point x="210" y="645" type="curve"/>
			<point x="211" y="666"/>
			<point x="210" y="665"/>
			<point x="279" y="674" type="curve"/>
			<point x="279" y="700" type="line"/>
			<point x="67" y="700" type="line"/>
			<point x="67" y="674" type="line"/>
			<point x="90" y="670"/>
			<point x="93" y="670"/>
			<point x="93" y="649" type="curve"/>
			<point x="93" y="476"/>
			<point x="103" y="248"/>
			<point x="95" y="75" type="curve"/>
			<point x="94" y="52"/>
			<point x="79" y="33"/>
		</contour>
	</outline>
</glyph>
<glyph name="M" format="2">
	<advance width="1031"/>
	<unicode hex="004D"/>
	<anchor x="518" y="722" name="top"/>
	<anchor x="518" y="25" name="bottom"/>
	<outline>
		<contour>
			<point x="25" y="0" type="line"/>
			<point x="279" y="0" type="line"/>
			<point x="279" y="32" type="line"/>
			<point x="190" y="40" type="line" smooth="yes"/>
			<point x="153" y="43"/>
			<point x="137" y="57"/>
			<point x="140" y="93" type="curve" smooth="yes"/>
			<point x="172" y="539" type="line"/>
			<point x="472" y="0" type="line"/>
			<point x="510" y="0" type="line"/>
			<point x="790" y="543" type="line"/>
			<point x="828" y="103" type="line" smooth="yes"/>
			<point x="832" y="60"/>
			<point x="834" y="47"/>
			<point x="806" y="43" type="curve" smooth="yes"/>
			<point x="726" y="33" type="line"/>
			<point x="726" y="0" type="line"/>
			<point x="1006" y="0" type="line"/>
			<point x="1006" y="33" type="line"/>
			<point x="975" y="41" type="line" smooth="yes"/>
			<point x="954" y="46"/>
			<point x="949" y="68"/>
			<point x="947" y="85" type="curve" smooth="yes"/>
			<point x="926" y="260"/>
			<point x="907" y="436"/>
			<point x="894" y="611" type="curve" smooth="yes"/>
			<point x="893" y="624"/>
			<point x="891" y="649"/>
			<point x="912" y="653" type="curve" smooth="yes"/>
			<point x="976" y="664" type="line"/>
			<point x="976" y="697" type="line"/>
			<point x="689" y="697" type="line"/>
			<point x="689" y="664" type="line"/>
			<point x="741" y="660" type="line" smooth="yes"/>
			<point x="772" y="658"/>
			<point x="785" y="642"/>
			<point x="773" y="619" type="curve" smooth="yes"/>
			<point x="521" y="135" type="line"/>
			<point x="245" y="625" type="line" smooth="yes"/>
			<point x="232" y="648"/>
			<point x="256" y="656"/>
			<point x="274" y="658" type="curve" smooth="yes"/>
			<point x="332" y="664" type="line"/>
			<point x="332" y="697" type="line"/>
			<point x="35" y="696" type="line"/>
			<point x="35" y="663" type="line"/>
			<point x="98" y="654" type="line" smooth="yes"/>
			<point x="114" y="652"/>
			<point x="122" y="637"/>
			<point x="121" y="619" type="curve" smooth="yes"/>
			<point x="111" y="443"/>
			<point x="100" y="266"/>
			<point x="81" y="91" type="curve" smooth="yes"/>
			<point x="77" y="54"/>
			<point x="74" y="43"/>
			<point x="51" y="38" type="curve" smooth="yes"/>
			<point x="25" y="32" type="line"/>
		</contour>
	</outline>
</glyph>
<glyph name="N" format="2">
	<advance width="878"/>
	<unicode hex="004E"/>
	<anchor x="439" y="722" name="top"/>
	<anchor x="439" y="25" name="bottom"/>
	<outline>
		<contour>
			<point x="584" y="698" type="line"/>
			<point x="584" y="670" type="line"/>
			<point x="692" y="660" type="line" smooth="yes"/>
			<point x="729" y="657"/>
			<point x="724" y="654"/>
			<point x="724" y="634" type="curve" smooth="yes"/>
			<point x="718" y="178" type="line"/>
			<point x="129" y="700" type="line"/>
			<point x="63" y="700" type="line"/>
			<point x="63" y="675" type="line"/>
			<point x="93" y="648"/>
			<point x="96" y="614"/>
			<point x="96" y="567" type="curve" smooth="yes"/>
			<point x="96" y="88" type="line" smooth="yes"/>
			<point x="96" y="51"/>
			<point x="88" y="42"/>
			<point x="67" y="35" type="curve" smooth="yes"/>
			<point x="50" y="29" type="line"/>
			<point x="50" y="1" type="line"/>
			<point x="294" y="1" type="line"/>
			<point x="294" y="29" type="line"/>
			<point x="205" y="37" type="line" smooth="yes"/>
			<point x="168" y="40"/>
			<point x="155" y="41"/>
			<point x="155" y="66" type="curve" smooth="yes"/>
			<point x="155" y="536" type="line"/>
			<point x="364" y="366"/>
			<point x="567" y="171"/>
			<point x="763" y="-11" type="curve"/>
			<point x="787" y="1" type="line"/>
			<point x="767" y="99"/>
			<point x="782" y="411"/>
			<point x="782" y="611" type="curve" smooth="yes"/>
			<point x="782" y="648"/>
			<point x="789" y="659"/>
			<point x="811" y="665" type="curve" smooth="yes"/>
			<point x="828" y="670" type="line"/>
			<point x="828" y="698" type="line"/>
		</contour>
	</outline>
</glyph>
<glyph name="O" format="2">
	<advance width="833"/>
	<unicode hex="004F"/>
	<anchor x="413" y="25" name="bottom"/>
	<anchor x="760" y="34" name="ogonek"/>
	<anchor x="413" y="722" name="top"/>
	<anchor x="829" y="722" name="topright"/>
	<anchor x="-3" y="722" name="topleft"/>
	<anchor x="413" y="373" name="center"/>
	<outline>
		<contour>
			<point x="412" y="-8" type="curve" smooth="yes"/>
			<point x="627" y="-8"/>
			<point x="788" y="137"/>
			<point x="788" y="361" type="curve" smooth="yes"/>
			<point x="788" y="576"/>
			<point x="627" y="709"/>
			<point x="412" y="709" type="curve" smooth="yes"/>
			<point x="191" y="709"/>
			<point x="45" y="546"/>
			<point x="45" y="342" type="curve" smooth="yes"/>
			<point x="45" y="132"/>
			<point x="195" y="-8"/>
		</contour>
		<contour>
			<point x="428" y="32" type="curve" smooth="yes"/>
			<point x="268" y="32"/>
			<point x="164" y="193"/>
			<point x="164" y="376" type="curve" smooth="yes"/>
			<point x="164" y="519"/>
			<point x="252" y="669"/>
			<point x="396" y="669" type="curve" smooth="yes"/>
			<point x="561" y="669"/>
			<point x="665" y="529"/>
			<point x="665" y="342" type="curve" smooth="yes"/>
			<point x="665" y="174"/>
			<point x="576" y="32"/>
		</contour>
	</outline>
</glyph>
<glyph name="P" format="2">
	<advance width="615"/>
	<unicode hex="0050"/>
	<anchor x="305" y="722" name="top"/>
	<anchor x="305" y="25" name="bottom"/>
	<outline>
		<contour>
			<point x="50" y="28" type="line"/>
			<point x="50" y="0" type="line"/>
			<point x="356" y="0" type="line"/>
			<point x="356" y="23" type="line"/>
			<point x="227" y="48" type="line" smooth="yes"/>
			<point x="206" y="52"/>
			<point x="205" y="56"/>
			<point x="204" y="83" type="curve"/>
			<point x="197" y="270"/>
			<point x="200" y="473"/>
			<point x="204" y="660" type="curve"/>
			<point x="226" y="665"/>
			<point x="255" y="666"/>
			<point x="285" y="666" type="curve"/>
			<point x="408" y="666"/>
			<point x="484" y="608"/>
			<point x="484" y="499" type="curve"/>
			<point x="484" y="391"/>
			<point x="395" y="308"/>
			<point x="247" y="286" type="curve"/>
			<point x="255" y="262" type="line"/>
			<point x="442" y="284"/>
			<point x="600" y="357"/>
			<point x="600" y="501" type="curve"/>
			<point x="600" y="617"/>
			<point x="506" y="699"/>
			<point x="354" y="698" type="curve"/>
			<point x="61" y="697" type="line"/>
			<point x="61" y="670" type="line"/>
			<point x="81" y="660"/>
			<point x="96" y="643"/>
			<point x="97" y="606" type="curve"/>
			<point x="102" y="430"/>
			<point x="104" y="242"/>
			<point x="96" y="65" type="curve"/>
			<point x="95" y="42"/>
			<point x="79" y="36"/>
			<point x="67" y="33" type="curve"/>
		</contour>
	</outline>
</glyph>
<glyph name="Q" format="2">
	<advance width="948"/>
	<unicode hex="0051"/>
	<outline>
		<contour>
			<point x="943" y="-38" type="curve"/>
			<point x="943" y="-38" type="line"/>
			<point x="930" y="-17" type="line"/>
			<point x="833" y="-53"/>
			<point x="787" y="-64"/>
			<point x="736" y="-64" type="curve"/>
			<point x="664" y="-64"/>
			<point x="608" y="-39"/>
			<point x="570" y="12" type="curve"/>
			<point x="724" y="58"/>
			<point x="829" y="185"/>
			<point x="829" y="361" type="curve"/>
			<point x="829" y="575"/>
			<point x="660" y="708"/>
			<point x="436" y="708" type="curve"/>
			<point x="205" y="708"/>
			<point x="45" y="545"/>
			<point x="45" y="342" type="curve"/>
			<point x="45" y="134"/>
			<point x="206" y="-3"/>
			<point x="426" y="-7" type="curve"/>
			<point x="482" y="-56"/>
			<point x="549" y="-116"/>
			<point x="693" y="-116" type="curve"/>
			<point x="773" y="-116"/>
			<point x="851" y="-88"/>
		</contour>
		<contour>
			<point x="158" y="363" type="curve"/>
			<point x="158" y="363" type="line"/>
			<point x="158" y="525"/>
			<point x="269" y="659"/>
			<point x="421" y="659" type="curve"/>
			<point x="590" y="659"/>
			<point x="717" y="513"/>
			<point x="717" y="342" type="curve"/>
			<point x="717" y="179"/>
			<point x="601" y="47"/>
			<point x="451" y="47" type="curve"/>
			<point x="279" y="47"/>
			<point x="158" y="183"/>
		</contour>
	</outline>
</glyph>
<glyph name="R" format="2">
	<advance width="801"/>
	<unicode hex="0052"/>
	<anchor x="384" y="722" name="top"/>
	<anchor x="384" y="25" name="bottom"/>
	<outline>
		<contour>
			<point x="791" y="-9" type="curve"/>
			<point x="801" y="19" type="line"/>
			<point x="714" y="35"/>
			<point x="656" y="72"/>
			<point x="601" y="112" type="curve" smooth="yes"/>
			<point x="552" y="148"/>
			<point x="486" y="234"/>
			<point x="444" y="317" type="curve"/>
			<point x="529" y="358"/>
			<point x="580" y="408"/>
			<point x="582" y="505" type="curve" smooth="yes"/>
			<point x="584" y="618"/>
			<point x="496" y="697"/>
			<point x="326" y="697" type="curve" smooth="yes"/>
			<point x="51" y="697" type="line"/>
			<point x="50" y="670" type="line"/>
			<point x="80" y="657"/>
			<point x="85" y="657"/>
			<point x="86" y="611" type="curve" smooth="yes"/>
			<point x="90" y="436"/>
			<point x="88" y="252"/>
			<point x="80" y="74" type="curve" smooth="yes"/>
			<point x="79" y="51"/>
			<point x="70" y="38"/>
			<point x="53" y="28" type="curve"/>
			<point x="53" y="0" type="line"/>
			<point x="316" y="0" type="line"/>
			<point x="316" y="23" type="line"/>
			<point x="214" y="45" type="line" smooth="yes"/>
			<point x="194" y="49"/>
			<point x="192" y="49"/>
			<point x="192" y="76" type="curve" smooth="yes"/>
			<point x="192" y="303" type="line"/>
			<point x="323" y="302" type="line"/>
			<point x="369" y="238"/>
			<point x="422" y="124"/>
			<point x="502" y="68" type="curve" smooth="yes"/>
			<point x="545" y="38"/>
			<point x="679" y="-3"/>
		</contour>
		<contour>
			<point x="192" y="338" type="line"/>
			<point x="192" y="662" type="line"/>
			<point x="267" y="663" type="line" smooth="yes"/>
			<point x="387" y="665"/>
			<point x="466" y="588"/>
			<point x="466" y="496" type="curve" smooth="yes"/>
			<point x="466" y="407"/>
			<point x="407" y="342"/>
			<point x="288" y="340" type="curve" smooth="yes"/>
		</contour>
	</outline>
</glyph>
<glyph name="S" format="2">
	<advance width="586"/>
	<unicode hex="0053"/>
	<anchor x="288" y="722" name="top"/>
	<anchor x="288" y="25" name="bottom"/>
	<outline>
		<contour>
			<point x="263" y="-11" type="curve"/>
			<point x="263" y="-11" type="line"/>
			<point x="434" y="-11"/>
			<point x="536" y="61"/>
			<point x="536" y="201" type="curve"/>
			<point x="536" y="292"/>
			<point x="462" y="355"/>
			<point x="339" y="409" type="curve"/>
			<point x="236" y="454"/>
			<point x="159" y="488"/>
			<point x="159" y="567" type="curve"/>
			<point x="159" y="631"/>
			<point x="213" y="666"/>
			<point x="280" y="666" type="curve"/>
			<point x="392" y="666"/>
			<point x="430" y="611"/>
			<point x="456" y="557" type="curve"/>
			<point x="482" y="562" type="line"/>
			<point x="457" y="707" type="line"/>
			<point x="457" y="704"/>
			<point x="396" y="709"/>
			<point x="315" y="709" type="curve"/>
			<point x="150" y="709"/>
			<point x="50" y="628"/>
			<point x="50" y="518" type="curve"/>
			<point x="50" y="389"/>
			<point x="159" y="360"/>
			<point x="252" y="323" type="curve"/>
			<point x="351" y="284"/>
			<point x="430" y="232"/>
			<point x="430" y="154" type="curve"/>
			<point x="430" y="77"/>
			<point x="358" y="24"/>
			<point x="280" y="24" type="curve"/>
			<point x="180" y="24"/>
			<point x="113" y="94"/>
			<point x="84" y="186" type="curve"/>
			<point x="53" y="183" type="line"/>
			<point x="87" y="20" type="line"/>
			<point x="87" y="20"/>
			<point x="170" y="-11"/>
		</contour>
	</outline>
</glyph>
<glyph name="T" format="2">
	<advance width="742"/>
	<unicode hex="0054"/>
	<anchor x="365" y="373" name="center"/>
	<anchor x="365" y="25" name="bottom"/>
	<anchor x="365" y="722" name="top"/>
	<outline>
		<contour>
			<point x="208" y="0" type="line"/>
			<point x="541" y="0" type="line"/>
			<point x="541" y="30" type="line"/>
			<point x="445" y="39" type="line" smooth="yes"/>
			<point x="432" y="40"/>
			<point x="433" y="43"/>
			<point x="432" y="66" type="curve" smooth="yes"/>
			<point x="424" y="256"/>
			<point x="427" y="471"/>
			<point x="427" y="651" type="curve"/>
			<point x="636" y="645" type="line" smooth="yes"/>
			<point x="662" y="644"/>
			<point x="686" y="639"/>
			<point x="694" y="612" type="curve" smooth="yes"/>
			<point x="711" y="557" type="line"/>
			<point x="737" y="557" type="line"/>
			<point x="724" y="722" type="line"/>
			<point x="697" y="722" type="line"/>
			<point x="690" y="707"/>
			<point x="677" y="700"/>
			<point x="646" y="700" type="curve" smooth="yes"/>
			<point x="108" y="700" type="line" smooth="yes"/>
			<point x="88" y="700"/>
			<point x="75" y="707"/>
			<point x="67" y="722" type="curve"/>
			<point x="41" y="722" type="line"/>
			<point x="5" y="562" type="line"/>
			<point x="35" y="557" type="line"/>
			<point x="55" y="612" type="line" smooth="yes"/>
			<point x="65" y="639"/>
			<point x="86" y="644"/>
			<point x="112" y="645" type="curve" smooth="yes"/>
			<point x="317" y="651" type="line"/>
			<point x="318" y="471"/>
			<point x="320" y="256"/>
			<point x="312" y="66" type="curve" smooth="yes"/>
			<point x="311" y="43"/>
			<point x="310" y="40"/>
			<point x="297" y="39" type="curve" smooth="yes"/>
			<point x="208" y="30" type="line"/>
		</contour>
	</outline>
</glyph>
<glyph name="U" format="2">
	<advance width="856"/>
	<unicode hex="0055"/>
	<outline>
		<contour>
			<point x="443" y="-11" type="curve" smooth="yes"/>
			<point x="636" y="-11"/>
			<point x="721" y="105"/>
			<point x="725" y="299" type="curve" smooth="yes"/>
			<point x="732" y="621" type="line" smooth="yes"/>
			<point x="732" y="642"/>
			<point x="743" y="661"/>
			<point x="766" y="666" type="curve" smooth="yes"/>
			<point x="806" y="674" type="line"/>
			<point x="806" y="699" type="line"/>
			<point x="547" y="699" type="line"/>
			<point x="547" y="674" type="line"/>
			<point x="641" y="666" type="line" smooth="yes"/>
			<point x="657" y="665"/>
			<point x="658" y="662"/>
			<point x="658" y="643" type="curve" smooth="yes"/>
			<point x="657" y="250" type="line" smooth="yes"/>
			<point x="657" y="126"/>
			<point x="576" y="45"/>
			<point x="445" y="45" type="curve" smooth="yes"/>
			<point x="315" y="45"/>
			<point x="229" y="103"/>
			<point x="229" y="250" type="curve" smooth="yes"/>
			<point x="229" y="611" type="line" smooth="yes"/>
			<point x="229" y="646"/>
			<point x="248" y="665"/>
			<point x="269" y="668" type="curve" smooth="yes"/>
			<point x="309" y="674" type="line"/>
			<point x="309" y="699" type="line"/>
			<point x="50" y="699" type="line"/>
			<point x="50" y="674" type="line"/>
			<point x="99" y="667" type="line" smooth="yes"/>
			<point x="118" y="664"/>
			<point x="117" y="665"/>
			<point x="117" y="636" type="curve" smooth="yes"/>
			<point x="120" y="299" type="line" smooth="yes"/>
			<point x="122" y="93"/>
			<point x="214" y="-11"/>
		</contour>
	</outline>
</glyph>
<glyph name="V" format="2">
	<advance width="768"/>
	<unicode hex="0056"/>
	<anchor x="384" y="722" name="top"/>
	<anchor x="384" y="25" name="bottom"/>
	<outline>
		<contour>
			<point x="370" y="-11" type="line"/>
			<point x="402" y="-11" type="line"/>
			<point x="728" y="632" type="line" smooth="yes"/>
			<point x="737" y="649"/>
			<point x="743" y="662"/>
			<point x="763" y="672" type="curve"/>
			<point x="763" y="700" type="line"/>
			<point x="556" y="700" type="line"/>
			<point x="556" y="672" type="line"/>
			<point x="634" y="668" type="line" smooth="yes"/>
			<point x="662" y="667"/>
			<point x="678" y="661"/>
			<point x="667" y="639" type="curve" smooth="yes"/>
			<point x="425" y="143" type="line"/>
			<point x="177" y="641" type="line" smooth="yes"/>
			<point x="169" y="657"/>
			<point x="179" y="667"/>
			<point x="200" y="668" type="curve" smooth="yes"/>
			<point x="273" y="672" type="line"/>
			<point x="273" y="700" type="line"/>
			<point x="5" y="700" type="line"/>
			<point x="5" y="675" type="line"/>
			<point x="26" y="672"/>
			<point x="39" y="660"/>
			<point x="47" y="644" type="curve" smooth="yes"/>
		</contour>
	</outline>
</glyph>
<glyph name="X" format="2">
	<advance width="674"/>
	<unicode hex="0058"/>
	<anchor x="337" y="722" name="top"/>
	<anchor x="337" y="25" name="bottom"/>
	<outline>
		<contour>
			<point x="648" y="661" type="curve" smooth="yes"/>
			<point x="669" y="672" type="line"/>
			<point x="669" y="700" type="line"/>
			<point x="450" y="700" type="line"/>
			<point x="450" y="675" type="line"/>
			<point x="475" y="669" type="line" smooth="yes"/>
			<point x="511" y="660"/>
			<point x="536" y="646"/>
			<point x="500" y="598" type="curve" smooth="yes"/>
			<point x="360" y="410" type="line"/>
			<point x="198" y="626" type="line" smooth="yes"/>
			<point x="184" y="645"/>
			<point x="193" y="661"/>
			<point x="208" y="665" type="curve" smooth="yes"/>
			<point x="243" y="675" type="line"/>
			<point x="243" y="700" type="line"/>
			<point x="5" y="700" type="line"/>
			<point x="5" y="672" type="line"/>
			<point x="24" y="666"/>
			<point x="46" y="649"/>
			<point x="68" y="620" type="curve" smooth="yes"/>
			<point x="278" y="335" type="line"/>
			<point x="49" y="71" type="line" smooth="yes"/>
			<point x="37" y="57"/>
			<point x="24" y="44"/>
			<point x="5" y="31" type="curve"/>
			<point x="5" y="0" type="line"/>
			<point x="173" y="0" type="line"/>
			<point x="173" y="28" type="line"/>
			<point x="134" y="39"/>
			<point x="118" y="46"/>
			<point x="132" y="65" type="curve" smooth="yes"/>
			<point x="305" y="299" type="line"/>
			<point x="469" y="75" type="line" smooth="yes"/>
			<point x="488" y="49"/>
			<point x="476" y="42"/>
			<point x="454" y="34" type="curve" smooth="yes"/>
			<point x="428" y="24" type="line"/>
			<point x="428" y="0" type="line"/>
			<point x="668" y="0" type="line"/>
			<point x="668" y="27" type="line"/>
			<point x="655" y="30"/>
			<point x="630" y="50"/>
			<point x="614" y="71" type="curve" smooth="yes"/>
			<point x="386" y="376" type="line"/>
			<point x="582" y="611" type="line" smooth="yes"/>
			<point x="606" y="639"/>
			<point x="630" y="652"/>
		</contour>
	</outline>
</glyph>
<glyph name="Y" format="2">
	<advance width="664"/>
	<unicode hex="0059"/>
	<outline>
		<contour>
			<point x="170" y="0" type="line"/>
			<point x="486" y="0" type="line"/>
			<point x="486" y="28" type="line"/>
			<point x="404" y="38" type="line" smooth="yes"/>
			<point x="390" y="40"/>
			<point x="384" y="48"/>
			<point x="384" y="62" type="curve" smooth="yes"/>
			<point x="386" y="300" type="line"/>
			<point x="561" y="626" type="line" smooth="yes"/>
			<point x="569" y="641"/>
			<point x="590" y="656"/>
			<point x="618" y="662" type="curve" smooth="yes"/>
			<point x="659" y="671" type="line"/>
			<point x="659" y="700" type="line"/>
			<point x="412" y="700" type="line"/>
			<point x="412" y="671" type="line"/>
			<point x="461" y="664" type="line" smooth="yes"/>
			<point x="488" y="660"/>
			<point x="500" y="644"/>
			<point x="488" y="619" type="curve" smooth="yes"/>
			<point x="362" y="351" type="line"/>
			<point x="219" y="616" type="line" smooth="yes"/>
			<point x="207" y="638"/>
			<point x="216" y="655"/>
			<point x="235" y="660" type="curve" smooth="yes"/>
			<point x="280" y="671" type="line"/>
			<point x="280" y="700" type="line"/>
			<point x="5" y="700" type="line"/>
			<point x="5" y="671" type="line"/>
			<point x="28" y="662" type="line" smooth="yes"/>
			<point x="71" y="645"/>
			<point x="92" y="631"/>
			<point x="108" y="601" type="curve" smooth="yes"/>
			<point x="276" y="291" type="line"/>
			<point x="273" y="62" type="line" smooth="yes"/>
			<point x="273" y="48"/>
			<point x="265" y="40"/>
			<point x="251" y="38" type="curve" smooth="yes"/>
			<point x="170" y="28" type="line"/>
		</contour>
	</outline>
</glyph>
<glyph name="Z" format="2">
	<advance width="703"/>
	<unicode hex="005A"/>
	<anchor x="352" y="722" name="top"/>
	<anchor x="352" y="25" name="bottom"/>
	<outline>
		<contour>
			<point x="45" y="-10" type="line"/>
			<point x="59" y="-4"/>
			<point x="72" y="0"/>
			<point x="88" y="0" type="curve" smooth="yes"/>
			<point x="274" y="0"/>
			<point x="461" y="0"/>
			<point x="647" y="-10" type="curve"/>
			<point x="698" y="134" type="line"/>
			<point x="669" y="139" type="line"/>
			<point x="639" y="91"/>
			<point x="582" y="47"/>
			<point x="470" y="47" type="curve" smooth="yes"/>
			<point x="175" y="46" type="line"/>
			<point x="569" y="586" type="line" smooth="yes"/>
			<point x="589" y="612"/>
			<point x="616" y="638"/>
			<point x="649" y="662" type="curve"/>
			<point x="637" y="706" type="line"/>
			<point x="595" y="701"/>
			<point x="555" y="700"/>
			<point x="510" y="700" type="curve" smooth="yes"/>
			<point x="62" y="700" type="line"/>
			<point x="5" y="610" type="line"/>
			<point x="31" y="597" type="line"/>
			<point x="83" y="643"/>
			<point x="97" y="647"/>
			<point x="160" y="648" type="curve" smooth="yes"/>
			<point x="480" y="653" type="line"/>
			<point x="12" y="15" type="line"/>
		</contour>
	</outline>
</glyph>
<glyph name="a" format="2">
	<advance width="344"/>
	<unicode hex="0061"/>
	<anchor x="307" y="34" name="ogonek"/>
	<anchor x="167" y="25" name="bottom"/>
	<anchor x="167" y="397" name="top"/>
	<outline>
		<contour>
			<point x="272" y="80" type="curve"/>
			<point x="272" y="80" type="line"/>
			<point x="274" y="144"/>
			<point x="277" y="220"/>
			<point x="277" y="283" type="curve"/>
			<point x="277" y="377"/>
			<point x="234" y="400"/>
			<point x="158" y="400" type="curve"/>
			<point x="93" y="400"/>
			<point x="28" y="354"/>
			<point x="28" y="332" type="curve"/>
			<point x="28" y="322"/>
			<point x="41" y="309"/>
			<point x="57" y="309" type="curve"/>
			<point x="77" y="309"/>
			<point x="75" y="319"/>
			<point x="88" y="339" type="curve"/>
			<point x="95" y="350"/>
			<point x="109" y="359"/>
			<point x="128" y="359" type="curve"/>
			<point x="167" y="359"/>
			<point x="198" y="329"/>
			<point x="196" y="269" type="curve"/>
			<point x="196" y="253"/>
			<point x="195" y="237"/>
			<point x="195" y="221" type="curve"/>
			<point x="90" y="157" type="line" smooth="yes"/>
			<point x="48" y="132"/>
			<point x="19" y="118"/>
			<point x="20" y="69" type="curve"/>
			<point x="21" y="19"/>
			<point x="54" y="-10"/>
			<point x="95" y="-10" type="curve"/>
			<point x="114" y="-10"/>
			<point x="156" y="19"/>
			<point x="197" y="48" type="curve"/>
			<point x="211" y="-8" type="line"/>
			<point x="217" y="-11" type="line"/>
			<point x="319" y="28" type="line"/>
			<point x="319" y="52" type="line"/>
			<point x="289" y="49"/>
			<point x="271" y="54"/>
		</contour>
		<contour>
			<point x="190" y="74" type="curve"/>
			<point x="190" y="74" type="line"/>
			<point x="181" y="59"/>
			<point x="158" y="46"/>
			<point x="139" y="46" type="curve"/>
			<point x="111" y="46"/>
			<point x="92" y="60"/>
			<point x="92" y="92" type="curve"/>
			<point x="92" y="123"/>
			<point x="100" y="137"/>
			<point x="194" y="188" type="curve"/>
			<point x="193" y="150"/>
			<point x="191" y="112"/>
		</contour>
	</outline>
</glyph>
<glyph name="b" format="2">
	<advance width="496"/>
	<unicode hex="0062"/>
	<anchor x="250" y="397" name="top"/>
	<anchor x="250" y="25" name="bottom"/>
	<outline>
		<contour>
			<point x="288" y="400" type="curve"/>
			<point x="288" y="400" type="line"/>
			<point x="268" y="400"/>
			<point x="196" y="357"/>
			<point x="160" y="337" type="curve"/>
			<point x="162" y="539" type="line" smooth="yes"/>
			<point x="162" y="577"/>
			<point x="166" y="649"/>
			<point x="170" y="696" type="curve"/>
			<point x="149" y="709" type="line"/>
			<point x="111" y="680"/>
			<point x="61" y="649"/>
			<point x="10" y="626" type="curve"/>
			<point x="10" y="598" type="line"/>
			<point x="62" y="598"/>
			<point x="76" y="567"/>
			<point x="78" y="526" type="curve"/>
			<point x="86" y="360"/>
			<point x="83" y="175"/>
			<point x="74" y="3" type="curve"/>
			<point x="135" y="-2"/>
			<point x="201" y="-10"/>
			<point x="262" y="-10" type="curve"/>
			<point x="348" y="10"/>
			<point x="471" y="96"/>
			<point x="471" y="218" type="curve"/>
			<point x="471" y="342"/>
			<point x="402" y="400"/>
		</contour>
		<contour>
			<point x="316" y="51" type="curve"/>
			<point x="316" y="51" type="line"/>
			<point x="276" y="51"/>
			<point x="199" y="60"/>
			<point x="178" y="76" type="curve"/>
			<point x="157" y="139"/>
			<point x="151" y="233"/>
			<point x="169" y="305" type="curve"/>
			<point x="199" y="323"/>
			<point x="236" y="333"/>
			<point x="271" y="333" type="curve"/>
			<point x="344" y="333"/>
			<point x="405" y="275"/>
			<point x="405" y="191" type="curve"/>
			<point x="405" y="122"/>
			<point x="364" y="64"/>
		</contour>
	</outline>
</glyph>
<glyph name="d" format="2">
	<advance width="509"/>
	<unicode hex="0064"/>
	<anchor x="253" y="25" name="bottom"/>
	<anchor x="253" y="397" name="top"/>
	<anchor x="489" y="397" name="topright"/>
	<anchor x="253" y="211" name="center"/>
	<outline>
		<contour>
			<point x="365" y="-13" type="line"/>
			<point x="402" y="2"/>
			<point x="445" y="19"/>
			<point x="484" y="34" type="curve"/>
			<point x="484" y="62" type="line"/>
			<point x="455" y="59"/>
			<point x="427" y="55"/>
			<point x="427" y="88" type="curve" smooth="yes"/>
			<point x="431" y="593" type="line" smooth="yes"/>
			<point x="431" y="630"/>
			<point x="436" y="678"/>
			<point x="440" y="711" type="curve"/>
			<point x="422" y="723" type="line"/>
			<point x="379" y="690"/>
			<point x="328" y="666"/>
			<point x="288" y="649" type="curve"/>
			<point x="288" y="621" type="line"/>
			<point x="304" y="620" type="line" smooth="yes"/>
			<point x="336" y="618"/>
			<point x="348" y="599"/>
			<point x="348" y="560" type="curve" smooth="yes"/>
			<point x="346" y="392" type="line"/>
			<point x="309" y="396"/>
			<point x="267" y="400"/>
			<point x="221" y="400" type="curve" smooth="yes"/>
			<point x="193" y="400"/>
			<point x="25" y="343"/>
			<point x="25" y="175" type="curve" smooth="yes"/>
			<point x="25" y="53"/>
			<point x="116" y="-10"/>
			<point x="212" y="-10" type="curve" smooth="yes"/>
			<point x="237" y="-10"/>
			<point x="303" y="43"/>
			<point x="348" y="70" type="curve"/>
			<point x="353" y="-8" type="line"/>
		</contour>
		<contour>
			<point x="238" y="56" type="curve" smooth="yes"/>
			<point x="152" y="56"/>
			<point x="97" y="119"/>
			<point x="97" y="212" type="curve" smooth="yes"/>
			<point x="97" y="290"/>
			<point x="149" y="355"/>
			<point x="228" y="353" type="curve" smooth="yes"/>
			<point x="304" y="352"/>
			<point x="348" y="296"/>
			<point x="348" y="222" type="curve" smooth="yes"/>
			<point x="348" y="113" type="line"/>
			<point x="319" y="76"/>
			<point x="277" y="56"/>
		</contour>
	</outline>
</glyph>
<glyph name="e" format="2">
	<advance width="360"/>
	<unicode hex="0065"/>
	<anchor x="333" y="34" name="ogonek"/>
	<anchor x="190" y="35" name="bottom"/>
	<anchor x="188" y="397" name="top"/>
	<outline>
		<contour>
			<point x="343" y="76" type="line"/>
			<point x="309" y="59"/>
			<point x="268" y="52"/>
			<point x="242" y="52" type="curve" smooth="yes"/>
			<point x="159" y="52"/>
			<point x="108" y="110"/>
			<point x="96" y="183" type="curve"/>
			<point x="347" y="289" type="line"/>
			<point x="347" y="303" type="line"/>
			<point x="315" y="324"/>
			<point x="267" y="400"/>
			<point x="197" y="400" type="curve" smooth="yes"/>
			<point x="153" y="400"/>
			<point x="85" y="353"/>
			<point x="68" y="339" type="curve"/>
			<point x="40" y="306"/>
			<point x="25" y="264"/>
			<point x="25" y="188" type="curve" smooth="yes"/>
			<point x="25" y="106"/>
			<point x="57" y="-10"/>
			<point x="207" y="-10" type="curve" smooth="yes"/>
			<point x="262" y="-10"/>
			<point x="319" y="34"/>
			<point x="350" y="56" type="curve"/>
		</contour>
		<contour>
			<point x="93" y="227" type="line" smooth="yes"/>
			<point x="95" y="306"/>
			<point x="118" y="351"/>
			<point x="158" y="351" type="curve" smooth="yes"/>
			<point x="190" y="351"/>
			<point x="233" y="308"/>
			<point x="243" y="277" type="curve"/>
			<point x="93" y="213" type="line"/>
		</contour>
	</outline>
</glyph>
<glyph name="f" format="2">
	<advance width="280"/>
	<unicode hex="0066"/>
	<anchor x="139" y="397" name="top"/>
	<anchor x="139" y="25" name="bottom"/>
	<outline>
		<contour>
			<point x="20" y="25" type="line"/>
			<point x="20" y="0" type="line"/>
			<point x="255" y="0" type="line"/>
			<point x="255" y="25" type="line"/>
			<point x="191" y="32" type="line" smooth="yes"/>
			<point x="177" y="34"/>
			<point x="171" y="42"/>
			<point x="171" y="56" type="curve"/>
			<point x="172" y="328" type="line"/>
			<point x="265" y="328" type="line"/>
			<point x="268" y="372" type="line"/>
			<point x="172" y="372" type="line"/>
			<point x="172" y="461"/>
			<point x="171" y="602"/>
			<point x="192" y="629" type="curve"/>
			<point x="206" y="647"/>
			<point x="231" y="660"/>
			<point x="263" y="660" type="curve"/>
			<point x="302" y="660"/>
			<point x="340" y="645"/>
			<point x="370" y="627" type="curve"/>
			<point x="388" y="645"/>
			<point x="405" y="663"/>
			<point x="405" y="676" type="curve"/>
			<point x="393" y="703"/>
			<point x="339" y="710"/>
			<point x="313" y="710" type="curve"/>
			<point x="255" y="710"/>
			<point x="194" y="663"/>
			<point x="162" y="633" type="curve"/>
			<point x="134" y="606"/>
			<point x="117" y="581"/>
			<point x="114" y="572" type="curve"/>
			<point x="97" y="521"/>
			<point x="95" y="437"/>
			<point x="93" y="372" type="curve"/>
			<point x="28" y="372" type="line"/>
			<point x="28" y="328" type="line"/>
			<point x="92" y="328" type="line"/>
			<point x="91" y="56" type="line" smooth="yes"/>
			<point x="91" y="42"/>
			<point x="83" y="34"/>
			<point x="69" y="32" type="curve"/>
		</contour>
	</outline>
</glyph>
<glyph name="g" format="2">
	<advance width="521"/>
	<unicode hex="0067"/>
	<anchor x="268" y="399" name="top"/>
	<anchor x="268" y="-1" name="bottom"/>
	<outline>
		<contour>
			<point x="374" y="-1" type="curve" smooth="yes"/>
			<point x="279" y="14"/>
			<point x="167" y="32"/>
			<point x="167" y="50" type="curve" smooth="yes"/>
			<point x="167" y="58"/>
			<point x="196" y="78"/>
			<point x="229" y="90" type="curve"/>
			<point x="352" y="95"/>
			<point x="429" y="152"/>
			<point x="429" y="256" type="curve" smooth="yes"/>
			<point x="429" y="292"/>
			<point x="410" y="321"/>
			<point x="392" y="348" type="curve"/>
			<point x="502" y="348" type="line"/>
			<point x="502" y="393" type="line"/>
			<point x="390" y="393"/>
			<point x="322" y="400"/>
			<point x="250" y="400" type="curve" smooth="yes"/>
			<point x="122" y="400"/>
			<point x="40" y="334"/>
			<point x="40" y="231" type="curve" smooth="yes"/>
			<point x="40" y="163"/>
			<point x="89" y="109"/>
			<point x="168" y="94" type="curve"/>
			<point x="118" y="63"/>
			<point x="56" y="37"/>
			<point x="56" y="26" type="curve" smooth="yes"/>
			<point x="56" y="10"/>
			<point x="66" y="-19"/>
			<point x="71" y="-23" type="curve" smooth="yes"/>
			<point x="83" y="-33"/>
			<point x="118" y="-39"/>
			<point x="160" y="-44" type="curve"/>
			<point x="105" y="-75"/>
			<point x="43" y="-121"/>
			<point x="43" y="-190" type="curve" smooth="yes"/>
			<point x="43" y="-272"/>
			<point x="135" y="-309"/>
			<point x="279" y="-309" type="curve" smooth="yes"/>
			<point x="413" y="-309"/>
			<point x="536" y="-254"/>
			<point x="536" y="-138" type="curve" smooth="yes"/>
			<point x="536" y="-45"/>
			<point x="473" y="-18"/>
		</contour>
		<contour>
			<point x="126" y="242" type="curve" smooth="yes"/>
			<point x="126" y="306"/>
			<point x="173" y="349"/>
			<point x="236" y="349" type="curve" smooth="yes"/>
			<point x="301" y="349"/>
			<point x="343" y="307"/>
			<point x="343" y="235" type="curve" smooth="yes"/>
			<point x="343" y="171"/>
			<point x="301" y="123"/>
			<point x="236" y="123" type="curve" smooth="yes"/>
			<point x="177" y="123"/>
			<point x="126" y="172"/>
		</contour>
		<contour>
			<point x="306" y="-276" type="curve" smooth="yes"/>
			<point x="173" y="-276"/>
			<point x="127" y="-217"/>
			<point x="127" y="-153" type="curve" smooth="yes"/>
			<point x="127" y="-116"/>
			<point x="166" y="-71"/>
			<point x="204" y="-49" type="curve"/>
			<point x="245" y="-53"/>
			<point x="288" y="-57"/>
			<point x="321" y="-63" type="curve" smooth="yes"/>
			<point x="403" y="-78"/>
			<point x="468" y="-97"/>
			<point x="468" y="-167" type="curve" smooth="yes"/>
			<point x="468" y="-237"/>
			<point x="379" y="-276"/>
		</contour>
	</outline>
</glyph>
<glyph name="h" format="2">
	<advance width="515"/>
	<unicode hex="0068"/>
	<anchor x="257" y="211" name="center"/>
	<anchor x="257" y="25" name="bottom"/>
	<anchor x="257" y="397" name="top"/>
	<outline>
		<contour>
			<point x="228" y="388" type="curve"/>
			<point x="217" y="381"/>
			<point x="179" y="351"/>
			<point x="160" y="338" type="curve"/>
			<point x="160" y="547" type="line" smooth="yes"/>
			<point x="160" y="585"/>
			<point x="159" y="650"/>
			<point x="164" y="697" type="curve"/>
			<point x="143" y="708" type="line"/>
			<point x="108" y="678"/>
			<point x="63" y="644"/>
			<point x="10" y="616" type="curve"/>
			<point x="10" y="588" type="line"/>
			<point x="62" y="588"/>
			<point x="79" y="566"/>
			<point x="82" y="502" type="curve" smooth="yes"/>
			<point x="85" y="440"/>
			<point x="83" y="172"/>
			<point x="78" y="66" type="curve" smooth="yes"/>
			<point x="77" y="46"/>
			<point x="71" y="36"/>
			<point x="52" y="31" type="curve" smooth="yes"/>
			<point x="31" y="25" type="line"/>
			<point x="31" y="0" type="line"/>
			<point x="218" y="-1" type="line"/>
			<point x="218" y="26" type="line"/>
			<point x="190" y="28" type="line" smooth="yes"/>
			<point x="169" y="30"/>
			<point x="161" y="45"/>
			<point x="161" y="61" type="curve" smooth="yes"/>
			<point x="161" y="298" type="line"/>
			<point x="185" y="324"/>
			<point x="217" y="346"/>
			<point x="259" y="346" type="curve" smooth="yes"/>
			<point x="345" y="346"/>
			<point x="422" y="274"/>
			<point x="422" y="178" type="curve" smooth="yes"/>
			<point x="422" y="106"/>
			<point x="385" y="51"/>
			<point x="364" y="51" type="curve" smooth="yes"/>
			<point x="357" y="51"/>
			<point x="348" y="55"/>
			<point x="342" y="55" type="curve" smooth="yes"/>
			<point x="336" y="55"/>
			<point x="295" y="32"/>
			<point x="295" y="14" type="curve" smooth="yes"/>
			<point x="295" y="-4"/>
			<point x="308" y="-14"/>
			<point x="326" y="-14" type="curve" smooth="yes"/>
			<point x="375" y="-14"/>
			<point x="490" y="109"/>
			<point x="490" y="200" type="curve" smooth="yes"/>
			<point x="490" y="342"/>
			<point x="391" y="422"/>
		</contour>
	</outline>
</glyph>
<glyph name="i" format="2">
	<advance width="225"/>
	<unicode hex="0069"/>
	<anchor x="112" y="25" name="bottom"/>
	<outline>
		<contour>
			<point x="128" y="600" type="curve"/>
			<point x="128" y="600" type="line"/>
			<point x="150" y="604"/>
			<point x="163" y="619"/>
			<point x="160" y="640" type="curve"/>
			<point x="157" y="659"/>
			<point x="141" y="671"/>
			<point x="118" y="668" type="curve"/>
			<point x="94" y="665"/>
			<point x="80" y="648"/>
			<point x="83" y="629" type="curve"/>
			<point x="86" y="609"/>
			<point x="103" y="595"/>
		</contour>
		<contour>
			<point x="60" y="1" type="curve"/>
			<point x="62" y="-12" type="line"/>
			<point x="105" y="-7"/>
			<point x="148" y="-3"/>
			<point x="210" y="0" type="curve"/>
			<point x="210" y="25" type="line"/>
			<point x="161" y="29"/>
			<point x="152" y="30"/>
			<point x="152" y="56" type="curve"/>
			<point x="152" y="154"/>
			<point x="147" y="293"/>
			<point x="161" y="390" type="curve"/>
			<point x="149" y="401" type="line"/>
			<point x="119" y="390"/>
			<point x="53" y="373"/>
			<point x="20" y="360" type="curve"/>
			<point x="20" y="335" type="line"/>
			<point x="51" y="333"/>
			<point x="70" y="327"/>
			<point x="71" y="285" type="curve"/>
			<point x="72" y="231"/>
			<point x="76" y="82"/>
		</contour>
	</outline>
</glyph>
<glyph name="j" format="2">
	<advance width="205"/>
	<unicode hex="006A"/>
	<outline>
		<contour>
			<point x="95" y="590" type="curve"/>
			<point x="95" y="590" type="line"/>
			<point x="120" y="594"/>
			<point x="134" y="611"/>
			<point x="130" y="634" type="curve"/>
			<point x="126" y="655"/>
			<point x="110" y="668"/>
			<point x="84" y="665" type="curve"/>
			<point x="58" y="662"/>
			<point x="43" y="643"/>
			<point x="46" y="622" type="curve"/>
			<point x="49" y="600"/>
			<point x="68" y="586"/>
		</contour>
		<contour>
			<point x="0" y="-246" type="curve"/>
			<point x="21" y="-256" type="line"/>
			<point x="92" y="-132"/>
			<point x="142" y="-36"/>
			<point x="142" y="20" type="curve"/>
			<point x="142" y="140"/>
			<point x="138" y="337"/>
			<point x="155" y="389" type="curve"/>
			<point x="141" y="400" type="line"/>
			<point x="88" y="385"/>
			<point x="56" y="373"/>
			<point x="9" y="362" type="curve"/>
			<point x="9" y="336" type="line"/>
			<point x="53" y="332"/>
			<point x="57" y="315"/>
			<point x="57" y="264" type="curve"/>
			<point x="57" y="187"/>
			<point x="58" y="118"/>
			<point x="58" y="30" type="curve"/>
			<point x="58" y="-84"/>
			<point x="41" y="-130"/>
		</contour>
	</outline>
</glyph>
<glyph name="k" format="2">
	<advance width="457"/>
	<unicode hex="006B"/>
	<outline>
		<contour>
			<point x="437" y="74" type="line"/>
			<point x="420" y="77"/>
			<point x="402" y="86"/>
			<point x="386" y="102" type="curve" smooth="yes"/>
			<point x="239" y="246" type="line"/>
			<point x="334" y="312" type="line" smooth="yes"/>
			<point x="350" y="323"/>
			<point x="378" y="344"/>
			<point x="398" y="347" type="curve"/>
			<point x="398" y="372" type="line"/>
			<point x="247" y="372" type="line"/>
			<point x="247" y="346" type="line"/>
			<point x="277" y="333"/>
			<point x="266" y="309"/>
			<point x="248" y="294" type="curve" smooth="yes"/>
			<point x="152" y="215" type="line"/>
			<point x="151" y="327"/>
			<point x="153" y="459"/>
			<point x="155" y="537" type="curve" smooth="yes"/>
			<point x="156" y="578"/>
			<point x="160" y="653"/>
			<point x="164" y="700" type="curve"/>
			<point x="143" y="710" type="line"/>
			<point x="97" y="676"/>
			<point x="56" y="648"/>
			<point x="10" y="627" type="curve"/>
			<point x="10" y="600" type="line"/>
			<point x="62" y="600"/>
			<point x="67" y="581"/>
			<point x="69" y="537" type="curve" smooth="yes"/>
			<point x="75" y="399"/>
			<point x="78" y="226"/>
			<point x="74" y="77" type="curve" smooth="yes"/>
			<point x="73" y="52"/>
			<point x="67" y="30"/>
			<point x="51" y="11" type="curve"/>
			<point x="51" y="-14" type="line"/>
			<point x="93" y="-8"/>
			<point x="123" y="-3"/>
			<point x="167" y="0" type="curve"/>
			<point x="167" y="28" type="line"/>
			<point x="159" y="52"/>
			<point x="155" y="111"/>
			<point x="153" y="183" type="curve"/>
			<point x="167" y="187" type="line" smooth="yes"/>
			<point x="212" y="200"/>
			<point x="334" y="40"/>
			<point x="361" y="-14" type="curve"/>
			<point x="367" y="-15" type="line"/>
			<point x="447" y="53" type="line"/>
		</contour>
	</outline>
</glyph>
<glyph name="l" format="2">
	<advance width="227"/>
	<unicode hex="006C"/>
	<anchor x="109" y="211" name="center"/>
	<anchor x="109" y="397" name="top"/>
	<anchor x="206" y="397" name="topright"/>
	<anchor x="109" y="25" name="bottom"/>
	<outline>
		<contour>
			<point x="35" y="9" type="curve"/>
			<point x="35" y="-16" type="line"/>
			<point x="85" y="-10"/>
			<point x="151" y="2"/>
			<point x="217" y="1" type="curve"/>
			<point x="217" y="29" type="line"/>
			<point x="175" y="31"/>
			<point x="156" y="30"/>
			<point x="155" y="63" type="curve"/>
			<point x="153" y="153"/>
			<point x="152" y="427"/>
			<point x="154" y="572" type="curve"/>
			<point x="155" y="634"/>
			<point x="157" y="644"/>
			<point x="164" y="701" type="curve"/>
			<point x="151" y="710" type="line"/>
			<point x="105" y="679"/>
			<point x="50" y="648"/>
			<point x="10" y="630" type="curve"/>
			<point x="13" y="603" type="line"/>
			<point x="66" y="608"/>
			<point x="68" y="601"/>
			<point x="70" y="553" type="curve"/>
			<point x="75" y="411"/>
			<point x="76" y="200"/>
			<point x="72" y="57" type="curve"/>
			<point x="71" y="21"/>
			<point x="65" y="22"/>
		</contour>
	</outline>
</glyph>
<glyph name="m" format="2">
	<advance width="778"/>
	<unicode hex="006D"/>
	<anchor x="394" y="397" name="top"/>
	<anchor x="394" y="25" name="bottom"/>
	<outline>
		<contour>
			<point x="27" y="-1" type="line"/>
			<point x="197" y="-1" type="line"/>
			<point x="197" y="22" type="line"/>
			<point x="170" y="34"/>
			<point x="163" y="38"/>
			<point x="163" y="90" type="curve" smooth="yes"/>
			<point x="163" y="293" type="line"/>
			<point x="188" y="323"/>
			<point x="214" y="342"/>
			<point x="256" y="342" type="curve" smooth="yes"/>
			<point x="315" y="342"/>
			<point x="346" y="302"/>
			<point x="346" y="236" type="curve" smooth="yes"/>
			<point x="346" y="92" type="line" smooth="yes"/>
			<point x="346" y="30"/>
			<point x="344" y="33"/>
			<point x="287" y="27" type="curve"/>
			<point x="287" y="0" type="line"/>
			<point x="488" y="0" type="line"/>
			<point x="488" y="27" type="line"/>
			<point x="428" y="30"/>
			<point x="430" y="27"/>
			<point x="430" y="92" type="curve" smooth="yes"/>
			<point x="430" y="285" type="line"/>
			<point x="466" y="330"/>
			<point x="500" y="342"/>
			<point x="526" y="342" type="curve" smooth="yes"/>
			<point x="592" y="342"/>
			<point x="626" y="313"/>
			<point x="626" y="186" type="curve" smooth="yes"/>
			<point x="626" y="64"/>
			<point x="617" y="44"/>
			<point x="572" y="23" type="curve"/>
			<point x="572" y="0" type="line"/>
			<point x="763" y="0" type="line"/>
			<point x="763" y="29" type="line"/>
			<point x="707" y="31"/>
			<point x="700" y="34"/>
			<point x="700" y="84" type="curve" smooth="yes"/>
			<point x="700" y="131"/>
			<point x="704" y="195"/>
			<point x="703" y="262" type="curve" smooth="yes"/>
			<point x="702" y="350"/>
			<point x="667" y="400"/>
			<point x="570" y="400" type="curve" smooth="yes"/>
			<point x="513" y="400"/>
			<point x="455" y="360"/>
			<point x="427" y="320" type="curve"/>
			<point x="413" y="371"/>
			<point x="376" y="400"/>
			<point x="300" y="400" type="curve" smooth="yes"/>
			<point x="243" y="400"/>
			<point x="190" y="363"/>
			<point x="163" y="328" type="curve"/>
			<point x="161" y="400" type="line"/>
			<point x="139" y="411" type="line"/>
			<point x="99" y="392"/>
			<point x="60" y="371"/>
			<point x="20" y="356" type="curve"/>
			<point x="20" y="328" type="line"/>
			<point x="65" y="328"/>
			<point x="79" y="306"/>
			<point x="79" y="275" type="curve" smooth="yes"/>
			<point x="79" y="160" type="line" smooth="yes"/>
			<point x="79" y="36"/>
			<point x="77" y="37"/>
			<point x="46" y="30" type="curve" smooth="yes"/>
			<point x="27" y="26" type="line"/>
		</contour>
	</outline>
</glyph>
<glyph name="n" format="2">
	<advance width="519"/>
	<unicode hex="006E"/>
	<anchor x="252" y="397" name="top"/>
	<anchor x="252" y="25" name="bottom"/>
	<outline>
		<contour>
			<point x="433" y="90" type="curve" smooth="yes"/>
			<point x="433" y="118"/>
			<point x="436" y="201"/>
			<point x="438" y="269" type="curve" smooth="yes"/>
			<point x="440" y="354"/>
			<point x="406" y="401"/>
			<point x="320" y="401" type="curve" smooth="yes"/>
			<point x="263" y="401"/>
			<point x="192" y="356"/>
			<point x="154" y="330" type="curve"/>
			<point x="152" y="406" type="line"/>
			<point x="140" y="414" type="line"/>
			<point x="100" y="389"/>
			<point x="60" y="363"/>
			<point x="20" y="346" type="curve"/>
			<point x="20" y="322" type="line"/>
			<point x="68" y="328"/>
			<point x="79" y="326"/>
			<point x="79" y="285" type="curve" smooth="yes"/>
			<point x="79" y="81" type="line" smooth="yes"/>
			<point x="79" y="31"/>
			<point x="80" y="30"/>
			<point x="32" y="22" type="curve"/>
			<point x="32" y="-3" type="line"/>
			<point x="85" y="1"/>
			<point x="138" y="0"/>
			<point x="193" y="0" type="curve"/>
			<point x="193" y="22" type="line"/>
			<point x="163" y="36"/>
			<point x="159" y="33"/>
			<point x="159" y="105" type="curve" smooth="yes"/>
			<point x="159" y="292" type="line"/>
			<point x="194" y="325"/>
			<point x="226" y="342"/>
			<point x="267" y="342" type="curve" smooth="yes"/>
			<point x="327" y="342"/>
			<point x="359" y="305"/>
			<point x="359" y="214" type="curve" smooth="yes"/>
			<point x="359" y="87"/>
			<point x="358" y="34"/>
			<point x="319" y="16" type="curve"/>
			<point x="319" y="-10" type="line"/>
			<point x="370" y="-3"/>
			<point x="443" y="-2"/>
			<point x="504" y="2" type="curve"/>
			<point x="504" y="31" type="line"/>
			<point x="443" y="30"/>
			<point x="433" y="45"/>
		</contour>
	</outline>
</glyph>
<glyph name="o" format="2">
	<advance width="442"/>
	<unicode hex="006F"/>
	<anchor x="217" y="281" name="center"/>
	<anchor x="392" y="104" name="ogonek"/>
	<anchor x="217" y="467" name="top"/>
	<anchor x="417" y="467" name="topright"/>
	<anchor x="217" y="95" name="bottom"/>
	<outline>
		<contour>
			<point x="224" y="-10" type="curve"/>
			<point x="224" y="-10" type="line"/>
			<point x="306" y="-10"/>
			<point x="417" y="92"/>
			<point x="417" y="201" type="curve"/>
			<point x="417" y="328"/>
			<point x="332" y="401"/>
			<point x="216" y="401" type="curve"/>
			<point x="125" y="401"/>
			<point x="25" y="304"/>
			<point x="25" y="192" type="curve"/>
			<point x="25" y="70"/>
			<point x="108" y="-10"/>
		</contour>
		<contour>
			<point x="255" y="47" type="curve"/>
			<point x="255" y="47" type="line"/>
			<point x="173" y="47"/>
			<point x="94" y="119"/>
			<point x="94" y="232" type="curve"/>
			<point x="94" y="299"/>
			<point x="128" y="346"/>
			<point x="184" y="346" type="curve"/>
			<point x="272" y="346"/>
			<point x="348" y="264"/>
			<point x="348" y="162" type="curve"/>
			<point x="348" y="94"/>
			<point x="313" y="47"/>
		</contour>
	</outline>
</glyph>
<glyph name="p" format="2">
	<advance width="484"/>
	<unicode hex="0070"/>
	<anchor x="239" y="397" name="top"/>
	<anchor x="239" y="25" name="bottom"/>
	<outline>
		<contour>
			<point x="11" y="-276" type="line"/>
			<point x="11" y="-300" type="line"/>
			<point x="227" y="-300" type="line"/>
			<point x="227" y="-272" type="line"/>
			<point x="171" y="-263" type="line" smooth="yes"/>
			<point x="150" y="-260"/>
			<point x="143" y="-259"/>
			<point x="143" y="-243" type="curve"/>
			<point x="143" y="-9" type="line"/>
			<point x="162" y="2"/>
			<point x="209" y="0"/>
			<point x="233" y="0" type="curve"/>
			<point x="335" y="0"/>
			<point x="459" y="72"/>
			<point x="459" y="210" type="curve"/>
			<point x="459" y="338"/>
			<point x="366" y="399"/>
			<point x="254" y="399" type="curve"/>
			<point x="235" y="399"/>
			<point x="173" y="365"/>
			<point x="144" y="346" type="curve"/>
			<point x="144" y="412" type="line"/>
			<point x="122" y="425" type="line"/>
			<point x="83" y="393"/>
			<point x="44" y="364"/>
			<point x="10" y="346" type="curve"/>
			<point x="10" y="319" type="line"/>
			<point x="52" y="319"/>
			<point x="58" y="296"/>
			<point x="59" y="255" type="curve"/>
			<point x="63" y="96"/>
			<point x="64" y="-47"/>
			<point x="59" y="-206" type="curve"/>
			<point x="58" y="-238"/>
			<point x="54" y="-263"/>
			<point x="27" y="-271" type="curve"/>
		</contour>
		<contour>
			<point x="227" y="38" type="curve"/>
			<point x="227" y="38" type="line"/>
			<point x="187" y="38"/>
			<point x="166" y="41"/>
			<point x="143" y="46" type="curve"/>
			<point x="144" y="316" type="line"/>
			<point x="170" y="325"/>
			<point x="195" y="336"/>
			<point x="233" y="336" type="curve"/>
			<point x="308" y="336"/>
			<point x="375" y="283"/>
			<point x="375" y="189" type="curve"/>
			<point x="375" y="99"/>
			<point x="308" y="38"/>
		</contour>
	</outline>
</glyph>
<glyph name="q" format="2">
	<advance width="496"/>
	<unicode hex="0071"/>
	<anchor x="248" y="397" name="top"/>
	<anchor x="248" y="25" name="bottom"/>
	<outline>
		<contour>
			<point x="460" y="-266" type="line" smooth="yes"/>
			<point x="434" y="-256"/>
			<point x="428" y="-233"/>
			<point x="428" y="-206" type="curve" smooth="yes"/>
			<point x="428" y="284" type="line" smooth="yes"/>
			<point x="428" y="325"/>
			<point x="433" y="370"/>
			<point x="439" y="408" type="curve"/>
			<point x="416" y="416" type="line"/>
			<point x="376" y="376" type="line"/>
			<point x="328" y="397"/>
			<point x="267" y="400"/>
			<point x="221" y="400" type="curve" smooth="yes"/>
			<point x="200" y="400"/>
			<point x="69" y="315"/>
			<point x="52" y="286" type="curve" smooth="yes"/>
			<point x="35" y="258"/>
			<point x="25" y="215"/>
			<point x="25" y="176" type="curve" smooth="yes"/>
			<point x="25" y="49"/>
			<point x="106" y="-9"/>
			<point x="212" y="-9" type="curve" smooth="yes"/>
			<point x="237" y="-9"/>
			<point x="303" y="43"/>
			<point x="348" y="79" type="curve"/>
			<point x="349" y="-221" type="line" smooth="yes"/>
			<point x="349" y="-256"/>
			<point x="341" y="-256"/>
			<point x="320" y="-261" type="curve" smooth="yes"/>
			<point x="273" y="-272" type="line"/>
			<point x="273" y="-300" type="line"/>
			<point x="476" y="-300" type="line"/>
			<point x="476" y="-272" type="line"/>
		</contour>
		<contour>
			<point x="228" y="60" type="curve" smooth="yes"/>
			<point x="152" y="60"/>
			<point x="94" y="109"/>
			<point x="94" y="202" type="curve" smooth="yes"/>
			<point x="94" y="282"/>
			<point x="155" y="345"/>
			<point x="226" y="345" type="curve" smooth="yes"/>
			<point x="301" y="345"/>
			<point x="343" y="279"/>
			<point x="348" y="196" type="curve"/>
			<point x="348" y="125" type="line"/>
			<point x="319" y="88"/>
			<point x="277" y="60"/>
		</contour>
	</outline>
</glyph>
<glyph name="r" format="2">
	<advance width="318"/>
	<unicode hex="0072"/>
	<anchor x="148" y="397" name="top"/>
	<anchor x="148" y="25" name="bottom"/>
	<outline>
		<contour>
			<point x="202" y="363" type="curve" smooth="yes"/>
			<point x="150" y="305" type="line"/>
			<point x="147" y="407" type="line"/>
			<point x="135" y="411" type="line"/>
			<point x="95" y="386"/>
			<point x="60" y="361"/>
			<point x="20" y="346" type="curve"/>
			<point x="20" y="318" type="line"/>
			<point x="65" y="318"/>
			<point x="79" y="296"/>
			<point x="79" y="265" type="curve" smooth="yes"/>
			<point x="79" y="86" type="line" smooth="yes"/>
			<point x="79" y="38"/>
			<point x="79" y="32"/>
			<point x="50" y="19" type="curve"/>
			<point x="50" y="-5" type="line"/>
			<point x="91" y="-2"/>
			<point x="146" y="1"/>
			<point x="220" y="0" type="curve"/>
			<point x="220" y="27" type="line"/>
			<point x="156" y="35"/>
			<point x="159" y="32"/>
			<point x="159" y="77" type="curve" smooth="yes"/>
			<point x="159" y="268" type="line"/>
			<point x="185" y="305"/>
			<point x="206" y="324"/>
			<point x="228" y="324" type="curve" smooth="yes"/>
			<point x="249" y="324"/>
			<point x="273" y="315"/>
			<point x="273" y="315" type="curve"/>
			<point x="313" y="385" type="line"/>
			<point x="313" y="390" type="line"/>
			<point x="249" y="410"/>
			<point x="233" y="398"/>
		</contour>
	</outline>
</glyph>
<glyph name="s" format="2">
	<advance width="344"/>
	<unicode hex="0073"/>
	<anchor x="168" y="397" name="top"/>
	<anchor x="168" y="25" name="bottom"/>
	<outline>
		<contour>
			<point x="168" y="-10" type="curve"/>
			<point x="168" y="-10" type="line"/>
			<point x="271" y="-10"/>
			<point x="319" y="46"/>
			<point x="319" y="116" type="curve"/>
			<point x="319" y="193"/>
			<point x="263" y="214"/>
			<point x="191" y="234" type="curve"/>
			<point x="126" y="252"/>
			<point x="100" y="273"/>
			<point x="100" y="312" type="curve"/>
			<point x="100" y="339"/>
			<point x="123" y="367"/>
			<point x="164" y="367" type="curve"/>
			<point x="209" y="367"/>
			<point x="246" y="342"/>
			<point x="260" y="294" type="curve"/>
			<point x="282" y="294" type="line"/>
			<point x="282" y="385" type="line"/>
			<point x="271" y="389"/>
			<point x="227" y="400"/>
			<point x="185" y="400" type="curve"/>
			<point x="101" y="400"/>
			<point x="25" y="356"/>
			<point x="25" y="278" type="curve"/>
			<point x="25" y="209"/>
			<point x="79" y="187"/>
			<point x="141" y="171" type="curve"/>
			<point x="210" y="153"/>
			<point x="243" y="132"/>
			<point x="243" y="87" type="curve"/>
			<point x="243" y="53"/>
			<point x="209" y="19"/>
			<point x="164" y="19" type="curve"/>
			<point x="102" y="19"/>
			<point x="75" y="61"/>
			<point x="64" y="104" type="curve"/>
			<point x="35" y="105" type="line"/>
			<point x="35" y="12" type="line"/>
			<point x="75" y="-2"/>
			<point x="110" y="-10"/>
		</contour>
	</outline>
</glyph>
<glyph name="t" format="2">
	<advance width="260"/>
	<unicode hex="0074"/>
	<anchor x="131" y="25" name="bottom"/>
	<anchor x="131" y="397" name="top"/>
	<anchor x="250" y="397" name="topright"/>
	<anchor x="131" y="211" name="center"/>
	<outline>
		<contour>
			<point x="129" y="-10" type="curve" smooth="yes"/>
			<point x="171" y="-10"/>
			<point x="208" y="13"/>
			<point x="248" y="37" type="curve"/>
			<point x="245" y="58" type="line"/>
			<point x="142" y="46"/>
			<point x="143" y="63"/>
			<point x="143" y="130" type="curve" smooth="yes"/>
			<point x="143" y="354" type="line"/>
			<point x="247" y="354" type="line"/>
			<point x="250" y="390" type="line"/>
			<point x="143" y="390" type="line"/>
			<point x="144" y="469" type="line"/>
			<point x="130" y="469" type="line"/>
			<point x="102" y="437"/>
			<point x="64" y="386"/>
			<point x="20" y="368" type="curve"/>
			<point x="20" y="354" type="line"/>
			<point x="63" y="354" type="line"/>
			<point x="63" y="75" type="line" smooth="yes"/>
			<point x="63" y="30"/>
			<point x="105" y="-10"/>
		</contour>
	</outline>
</glyph>
<glyph name="v" format="2">
	<advance width="419"/>
	<unicode hex="0076"/>
	<outline>
		<contour>
			<point x="247" y="400" type="curve"/>
			<point x="143" y="305" type="line"/>
			<point x="126" y="335"/>
			<point x="106" y="363"/>
			<point x="84" y="390" type="curve"/>
			<point x="-25" y="389" type="line"/>
			<point x="-25" y="361" type="line"/>
			<point x="58" y="337"/>
			<point x="157" y="126"/>
			<point x="175" y="0" type="curve"/>
			<point x="203" y="0" type="line"/>
			<point x="314" y="126"/>
			<point x="394" y="204"/>
			<point x="394" y="295" type="curve" smooth="yes"/>
			<point x="394" y="390"/>
			<point x="322" y="401"/>
		</contour>
		<contour>
			<point x="234" y="86" type="curve"/>
			<point x="212" y="159"/>
			<point x="188" y="221"/>
			<point x="159" y="276" type="curve"/>
			<point x="188" y="310"/>
			<point x="215" y="322"/>
			<point x="243" y="322" type="curve" smooth="yes"/>
			<point x="284" y="322"/>
			<point x="315" y="297"/>
			<point x="315" y="241" type="curve" smooth="yes"/>
			<point x="315" y="190"/>
			<point x="296" y="145"/>
		</contour>
	</outline>
</glyph>
<glyph name="w" format="2">
	<advance width="638"/>
	<unicode hex="0077"/>
	<outline>
		<contour>
			<point x="170" y="-1" type="line"/>
			<point x="195" y="-1" type="line"/>
			<point x="309" y="261" type="line"/>
			<point x="427" y="-1" type="line"/>
			<point x="452" y="-1" type="line"/>
			<point x="590" y="311" type="line" smooth="yes"/>
			<point x="598" y="329"/>
			<point x="616" y="353"/>
			<point x="633" y="363" type="curve"/>
			<point x="633" y="390" type="line"/>
			<point x="502" y="390" type="line"/>
			<point x="502" y="363" type="line"/>
			<point x="542" y="358"/>
			<point x="555" y="348"/>
			<point x="545" y="322" type="curve" smooth="yes"/>
			<point x="466" y="112" type="line"/>
			<point x="348" y="390" type="line"/>
			<point x="320" y="390" type="line"/>
			<point x="204" y="109" type="line"/>
			<point x="116" y="325" type="line" smooth="yes"/>
			<point x="106" y="350"/>
			<point x="125" y="362"/>
			<point x="168" y="362" type="curve"/>
			<point x="168" y="390" type="line"/>
			<point x="-15" y="390" type="line"/>
			<point x="-15" y="362" type="line"/>
			<point x="11" y="348"/>
			<point x="21" y="324"/>
			<point x="26" y="313" type="curve" smooth="yes"/>
		</contour>
	</outline>
</glyph>
<glyph name="x" format="2">
	<advance width="442"/>
	<unicode hex="0078"/>
	<anchor x="221" y="398" name="top"/>
	<anchor x="221" y="11" name="bottom"/>
	<outline>
		<contour>
			<point x="372" y="84" type="curve"/>
			<point x="372" y="84" type="line"/>
			<point x="262" y="216" type="line"/>
			<point x="360" y="317" type="line" smooth="yes"/>
			<point x="389" y="347"/>
			<point x="413" y="360"/>
			<point x="428" y="361" type="curve"/>
			<point x="428" y="390" type="line"/>
			<point x="275" y="390" type="line"/>
			<point x="275" y="361" type="line"/>
			<point x="315" y="355"/>
			<point x="319" y="338"/>
			<point x="304" y="320" type="curve"/>
			<point x="240" y="242" type="line"/>
			<point x="168" y="328" type="line" smooth="yes"/>
			<point x="152" y="347"/>
			<point x="174" y="356"/>
			<point x="195" y="361" type="curve"/>
			<point x="195" y="390" type="line"/>
			<point x="9" y="390" type="line"/>
			<point x="9" y="361" type="line"/>
			<point x="33" y="355"/>
			<point x="43" y="340"/>
			<point x="73" y="306" type="curve"/>
			<point x="180" y="183" type="line"/>
			<point x="98" y="100" type="line" smooth="yes"/>
			<point x="42" y="44"/>
			<point x="20" y="28"/>
			<point x="5" y="28" type="curve"/>
			<point x="5" y="-1" type="line"/>
			<point x="159" y="-1" type="line"/>
			<point x="159" y="28" type="line"/>
			<point x="136" y="28"/>
			<point x="117" y="51"/>
			<point x="138" y="78" type="curve"/>
			<point x="202" y="158" type="line"/>
			<point x="269" y="82" type="line" smooth="yes"/>
			<point x="297" y="51"/>
			<point x="265" y="31"/>
			<point x="251" y="29" type="curve"/>
			<point x="251" y="0" type="line"/>
			<point x="437" y="0" type="line"/>
			<point x="437" y="32" type="line"/>
			<point x="421" y="32"/>
			<point x="401" y="49"/>
		</contour>
	</outline>
</glyph>
<glyph name="y" format="2">
	<advance width="438"/>
	<unicode hex="0079"/>
	<anchor x="210" y="397" name="top"/>
	<anchor x="210" y="25" name="bottom"/>
	<outline>
		<contour>
			<point x="433" y="390" type="line"/>
			<point x="301" y="390" type="line"/>
			<point x="301" y="362" type="line"/>
			<point x="339" y="358"/>
			<point x="351" y="338"/>
			<point x="337" y="315" type="curve"/>
			<point x="192" y="70" type="line"/>
			<point x="127" y="322" type="line" smooth="yes"/>
			<point x="119" y="352"/>
			<point x="132" y="358"/>
			<point x="171" y="362" type="curve"/>
			<point x="171" y="390" type="line"/>
			<point x="5" y="390" type="line"/>
			<point x="5" y="362" type="line"/>
			<point x="17" y="355"/>
			<point x="27" y="347"/>
			<point x="36" y="316" type="curve"/>
			<point x="134" y="-30" type="line"/>
			<point x="39" y="-190" type="line"/>
			<point x="71" y="-207" type="line"/>
			<point x="387" y="310" type="line" smooth="yes"/>
			<point x="397" y="327"/>
			<point x="416" y="352"/>
			<point x="433" y="362" type="curve"/>
		</contour>
	</outline>
</glyph>
<glyph name="z" format="2">
	<advance width="420"/>
	<unicode hex="007A"/>
	<anchor x="216" y="397" name="top"/>
	<anchor x="216" y="25" name="bottom"/>
	<outline>
		<contour>
			<point x="25" y="9" type="line"/>
			<point x="39" y="-9" type="line"/>
			<point x="69" y="-3"/>
			<point x="96" y="0"/>
			<point x="132" y="0" type="curve"/>
			<point x="372" y="0" type="line"/>
			<point x="372" y="116" type="line"/>
			<point x="349" y="116" type="line"/>
			<point x="342" y="93"/>
			<point x="337" y="79"/>
			<point x="307" y="79" type="curve"/>
			<point x="133" y="79" type="line"/>
			<point x="354" y="327" type="line" smooth="yes"/>
			<point x="364" y="339"/>
			<point x="390" y="363"/>
			<point x="415" y="376" type="curve"/>
			<point x="415" y="395" type="line"/>
			<point x="306" y="388"/>
			<point x="176" y="391"/>
			<point x="65" y="391" type="curve"/>
			<point x="5" y="311" type="line"/>
			<point x="15" y="298" type="line"/>
			<point x="36" y="306"/>
			<point x="63" y="313"/>
			<point x="102" y="313" type="curve"/>
			<point x="282" y="313" type="line"/>
		</contour>
	</outline>
</glyph>
<glyph name="a_macr" format="2">
	<advance width="343"/>
	<unicode hex="0101"/>
	<anchor x="307" y="34" name="ogonek"/>
	<anchor x="167" y="25" name="bottom"/>
	<anchor x="167" y="397" name="top"/>
	<outline>
		<contour>
			<point x="118" y="533" type="curve" smooth="yes"/>
			<point x="149" y="533"/>
			<point x="216" y="512"/>
			<point x="255" y="507" type="curve"/>
			<point x="276" y="519"/>
			<point x="319" y="571"/>
			<point x="333" y="594" type="curve"/>
			<point x="310" y="603" type="line"/>
			<point x="298" y="598"/>
			<point x="284" y="582"/>
			<point x="263" y="582" type="curve" smooth="yes"/>
			<point x="231" y="582"/>
			<point x="175" y="605"/>
			<point x="135" y="605" type="curve"/>
			<point x="112" y="595"/>
			<point x="61" y="542"/>
			<point x="47" y="519" type="curve"/>
			<point x="76" y="510" type="line"/>
			<point x="90" y="525"/>
			<point x="96" y="533"/>
		</contour>
		<contour>
			<point x="272" y="80" type="curve" smooth="yes"/>
			<point x="274" y="144"/>
			<point x="277" y="220"/>
			<point x="277" y="283" type="curve" smooth="yes"/>
			<point x="277" y="377"/>
			<point x="234" y="400"/>
			<point x="158" y="400" type="curve" smooth="yes"/>
			<point x="93" y="400"/>
			<point x="28" y="354"/>
			<point x="28" y="332" type="curve" smooth="yes"/>
			<point x="28" y="322"/>
			<point x="41" y="309"/>
			<point x="57" y="309" type="curve" smooth="yes"/>
			<point x="77" y="309"/>
			<point x="75" y="319"/>
			<point x="88" y="339" type="curve" smooth="yes"/>
			<point x="95" y="350"/>
			<point x="109" y="359"/>
			<point x="128" y="359" type="curve" smooth="yes"/>
			<point x="167" y="359"/>
			<point x="198" y="329"/>
			<point x="196" y="269" type="curve" smooth="yes"/>
			<point x="196" y="253"/>
			<point x="195" y="237"/>
			<point x="195" y="221" type="curve"/>
			<point x="90" y="157" type="line" smooth="yes"/>
			<point x="48" y="132"/>
			<point x="19" y="118"/>
			<point x="20" y="69" type="curve" smooth="yes"/>
			<point x="21" y="19"/>
			<point x="54" y="-10"/>
			<point x="95" y="-10" type="curve" smooth="yes"/>
			<point x="114" y="-10"/>
			<point x="156" y="19"/>
			<point x="197" y="48" type="curve"/>
			<point x="211" y="-8" type="line"/>
			<point x="217" y="-11" type="line"/>
			<point x="319" y="28" type="line"/>
			<point x="319" y="52" type="line"/>
			<point x="289" y="49"/>
			<point x="271" y="54"/>
		</contour>
		<contour>
			<point x="190" y="74" type="curve"/>
			<point x="181" y="59"/>
			<point x="158" y="46"/>
			<point x="139" y="46" type="curve" smooth="yes"/>
			<point x="111" y="46"/>
			<point x="92" y="60"/>
			<point x="92" y="92" type="curve" smooth="yes"/>
			<point x="92" y="123"/>
			<point x="100" y="137"/>
			<point x="194" y="188" type="curve"/>
			<point x="193" y="150"/>
			<point x="191" y="112"/>
		</contour>
	</outline>
</glyph>
<glyph name="e_macr" format="2">
	<advance width="354"/>
	<unicode hex="0113"/>
	<anchor x="327" y="34" name="ogonek"/>
	<anchor x="184" y="35" name="bottom"/>
	<anchor x="182" y="397" name="top"/>
	<outline>
		<contour>
			<point x="118" y="523" type="curve" smooth="yes"/>
			<point x="149" y="523"/>
			<point x="214" y="512"/>
			<point x="253" y="512" type="curve" smooth="yes"/>
			<point x="259" y="512"/>
			<point x="324" y="594"/>
			<point x="338" y="617" type="curve"/>
			<point x="310" y="625" type="line"/>
			<point x="298" y="610"/>
			<point x="282" y="580"/>
			<point x="261" y="580" type="curve" smooth="yes"/>
			<point x="229" y="580"/>
			<point x="148" y="594"/>
			<point x="108" y="594" type="curve" smooth="yes"/>
			<point x="102" y="594"/>
			<point x="56" y="523"/>
			<point x="42" y="500" type="curve"/>
			<point x="71" y="491" type="line"/>
			<point x="85" y="508"/>
			<point x="96" y="523"/>
		</contour>
		<contour>
			<point x="337" y="67" type="line"/>
			<point x="303" y="50"/>
			<point x="253" y="43"/>
			<point x="227" y="43" type="curve" smooth="yes"/>
			<point x="152" y="43"/>
			<point x="111" y="102"/>
			<point x="99" y="183" type="curve"/>
			<point x="328" y="254" type="line"/>
			<point x="332" y="268" type="line"/>
			<point x="304" y="347"/>
			<point x="243" y="400"/>
			<point x="204" y="400" type="curve" smooth="yes"/>
			<point x="160" y="400"/>
			<point x="79" y="353"/>
			<point x="62" y="339" type="curve"/>
			<point x="34" y="306"/>
			<point x="25" y="234"/>
			<point x="25" y="188" type="curve" smooth="yes"/>
			<point x="25" y="76"/>
			<point x="71" y="-10"/>
			<point x="191" y="-10" type="curve" smooth="yes"/>
			<point x="246" y="-10"/>
			<point x="313" y="25"/>
			<point x="344" y="47" type="curve"/>
		</contour>
		<contour>
			<point x="95" y="247" type="curve" smooth="yes"/>
			<point x="97" y="306"/>
			<point x="112" y="351"/>
			<point x="152" y="351" type="curve" smooth="yes"/>
			<point x="184" y="351"/>
			<point x="227" y="315"/>
			<point x="237" y="254" type="curve"/>
			<point x="96" y="213" type="line"/>
			<point x="95" y="224"/>
			<point x="95" y="235"/>
		</contour>
	</outline>
</glyph>
<glyph name="e_ogon" format="2">
	<advance width="354"/>
	<unicode hex="0119"/>
	<anchor x="327" y="34" name="ogonek"/>
	<anchor x="184" y="35" name="bottom"/>
	<anchor x="182" y="397" name="top"/>
	<outline>
		<contour>
			<point x="153" y="-181" type="curve"/>
			<point x="153" y="-181" type="line"/>
			<point x="130" y="-176"/>
			<point x="135" y="-170"/>
			<point x="140" y="-157" type="curve"/>
			<point x="162" y="-106"/>
			<point x="197" y="-55"/>
			<point x="241" y="-3" type="curve"/>
			<point x="280" y="7"/>
			<point x="315" y="28"/>
			<point x="344" y="47" type="curve"/>
			<point x="337" y="66" type="line"/>
			<point x="309" y="51"/>
			<point x="253" y="43"/>
			<point x="227" y="43" type="curve"/>
			<point x="165" y="43"/>
			<point x="126" y="84"/>
			<point x="107" y="144" type="curve"/>
			<point x="327" y="334" type="line"/>
			<point x="331" y="348" type="line"/>
			<point x="303" y="367"/>
			<point x="261" y="400"/>
			<point x="181" y="400" type="curve"/>
			<point x="159" y="400"/>
			<point x="79" y="338"/>
			<point x="62" y="318" type="curve"/>
			<point x="34" y="285"/>
			<point x="25" y="234"/>
			<point x="25" y="188" type="curve"/>
			<point x="25" y="76"/>
			<point x="71" y="-10"/>
			<point x="191" y="-10" type="curve"/>
			<point x="204" y="-10" type="line"/>
			<point x="135" y="-83"/>
			<point x="64" y="-196"/>
			<point x="48" y="-227" type="curve"/>
			<point x="55" y="-239" type="line"/>
			<point x="93" y="-239"/>
			<point x="199" y="-231"/>
			<point x="255" y="-209" type="curve"/>
			<point x="271" y="-192" type="line"/>
			<point x="272" y="-186" type="line"/>
			<point x="241" y="-188"/>
			<point x="179" y="-187"/>
		</contour>
		<contour>
			<point x="95" y="247" type="curve"/>
			<point x="95" y="247" type="line"/>
			<point x="97" y="306"/>
			<point x="112" y="341"/>
			<point x="152" y="341" type="curve"/>
			<point x="184" y="341"/>
			<point x="213" y="327"/>
			<point x="242" y="296" type="curve"/>
			<point x="100" y="173" type="line"/>
			<point x="96" y="196"/>
			<point x="94" y="221"/>
		</contour>
	</outline>
</glyph>
<glyph name="i_macr" format="2">
	<advance width="245"/>
	<unicode hex="012B"/>
	<outline>
		<contour>
			<point x="-25" y="539" type="curve"/>
			<point x="4" y="530" type="line"/>
			<point x="18" y="537"/>
			<point x="24" y="543"/>
			<point x="46" y="543" type="curve"/>
			<point x="77" y="543"/>
			<point x="113" y="532"/>
			<point x="152" y="532" type="curve"/>
			<point x="158" y="532"/>
			<point x="216" y="596"/>
			<point x="230" y="619" type="curve"/>
			<point x="202" y="627" type="line"/>
			<point x="190" y="622"/>
			<point x="181" y="615"/>
			<point x="160" y="615" type="curve"/>
			<point x="128" y="615"/>
			<point x="93" y="625"/>
			<point x="53" y="625" type="curve"/>
			<point x="47" y="625"/>
			<point x="-11" y="562"/>
		</contour>
		<contour>
			<point x="66" y="2" type="curve"/>
			<point x="68" y="-11" type="line"/>
			<point x="111" y="-6"/>
			<point x="154" y="-2"/>
			<point x="216" y="1" type="curve"/>
			<point x="216" y="26" type="line"/>
			<point x="167" y="30"/>
			<point x="158" y="31"/>
			<point x="158" y="57" type="curve"/>
			<point x="158" y="155"/>
			<point x="153" y="294"/>
			<point x="167" y="391" type="curve"/>
			<point x="155" y="402" type="line"/>
			<point x="125" y="391"/>
			<point x="59" y="374"/>
			<point x="26" y="361" type="curve"/>
			<point x="26" y="336" type="line"/>
			<point x="57" y="334"/>
			<point x="76" y="328"/>
			<point x="77" y="286" type="curve"/>
			<point x="78" y="232"/>
			<point x="82" y="83"/>
		</contour>
	</outline>
</glyph>
<glyph name="o_macr" format="2">
	<advance width="442"/>
	<unicode hex="014D"/>
	<anchor x="217" y="281" name="center"/>
	<anchor x="392" y="104" name="ogonek"/>
	<anchor x="217" y="467" name="top"/>
	<anchor x="417" y="467" name="topright"/>
	<anchor x="217" y="95" name="bottom"/>
	<outline>
		<contour>
			<point x="76" y="528" type="curve"/>
			<point x="105" y="519" type="line"/>
			<point x="119" y="526"/>
			<point x="125" y="532"/>
			<point x="147" y="532" type="curve"/>
			<point x="178" y="532"/>
			<point x="214" y="527"/>
			<point x="253" y="521" type="curve"/>
			<point x="259" y="521"/>
			<point x="327" y="575"/>
			<point x="361" y="598" type="curve"/>
			<point x="336" y="610" type="line"/>
			<point x="314" y="600"/>
			<point x="272" y="594"/>
			<point x="251" y="594" type="curve"/>
			<point x="219" y="594"/>
			<point x="194" y="603"/>
			<point x="164" y="604" type="curve"/>
			<point x="144" y="586"/>
			<point x="100" y="551"/>
		</contour>
		<contour>
			<point x="224" y="-10" type="curve"/>
			<point x="224" y="-10" type="line"/>
			<point x="306" y="-10"/>
			<point x="417" y="92"/>
			<point x="417" y="201" type="curve"/>
			<point x="417" y="328"/>
			<point x="332" y="401"/>
			<point x="216" y="401" type="curve"/>
			<point x="125" y="401"/>
			<point x="25" y="304"/>
			<point x="25" y="192" type="curve"/>
			<point x="25" y="70"/>
			<point x="108" y="-10"/>
		</contour>
		<contour>
			<point x="255" y="47" type="curve"/>
			<point x="255" y="47" type="line"/>
			<point x="173" y="47"/>
			<point x="94" y="119"/>
			<point x="94" y="232" type="curve"/>
			<point x="94" y="299"/>
			<point x="128" y="346"/>
			<point x="184" y="346" type="curve"/>
			<point x="272" y="346"/>
			<point x="348" y="264"/>
			<point x="348" y="162" type="curve"/>
			<point x="348" y="94"/>
			<point x="313" y="47"/>
		</contour>
	</outline>
</glyph>
<glyph name="u_macr" format="2">
	<advance width="473"/>
	<unicode hex="016B"/>
	<anchor x="425" y="34" name="ogonek"/>
	<anchor x="232" y="397" name="top"/>
	<anchor x="455" y="397" name="topright"/>
	<anchor x="232" y="25" name="bottom"/>
	<outline>
		<contour>
			<point x="219" y="542" type="curve"/>
			<point x="231" y="544"/>
			<point x="332" y="633"/>
			<point x="351" y="653" type="curve"/>
			<point x="332" y="668" type="line"/>
			<point x="245" y="607"/>
			<point x="212" y="618"/>
			<point x="147" y="631" type="curve"/>
			<point x="116" y="612"/>
			<point x="83" y="579"/>
			<point x="51" y="553" type="curve"/>
			<point x="77" y="539" type="line"/>
			<point x="136" y="579"/>
			<point x="162" y="570"/>
		</contour>
		<contour>
			<point x="405" y="95" type="curve" smooth="yes"/>
			<point x="405" y="320" type="line" smooth="yes"/>
			<point x="405" y="346"/>
			<point x="408" y="368"/>
			<point x="412" y="393" type="curve"/>
			<point x="405" y="398" type="line"/>
			<point x="354" y="390"/>
			<point x="306" y="389"/>
			<point x="256" y="389" type="curve"/>
			<point x="256" y="364" type="line"/>
			<point x="294" y="356" type="line" smooth="yes"/>
			<point x="315" y="352"/>
			<point x="325" y="340"/>
			<point x="325" y="318" type="curve" smooth="yes"/>
			<point x="325" y="94" type="line"/>
			<point x="301" y="70"/>
			<point x="260" y="55"/>
			<point x="219" y="55" type="curve" smooth="yes"/>
			<point x="163" y="55"/>
			<point x="143" y="83"/>
			<point x="143" y="133" type="curve" smooth="yes"/>
			<point x="143" y="320" type="line" smooth="yes"/>
			<point x="143" y="346"/>
			<point x="147" y="372"/>
			<point x="155" y="387" type="curve"/>
			<point x="143" y="400" type="line"/>
			<point x="97" y="386"/>
			<point x="57" y="371"/>
			<point x="15" y="359" type="curve"/>
			<point x="15" y="334" type="line"/>
			<point x="43" y="331"/>
			<point x="63" y="314"/>
			<point x="63" y="283" type="curve" smooth="yes"/>
			<point x="63" y="111" type="line" smooth="yes"/>
			<point x="63" y="41"/>
			<point x="83" y="-9"/>
			<point x="177" y="-9" type="curve" smooth="yes"/>
			<point x="221" y="-9"/>
			<point x="285" y="24"/>
			<point x="330" y="64" type="curve"/>
			<point x="336" y="-5" type="line"/>
			<point x="347" y="-9" type="line"/>
			<point x="373" y="2"/>
			<point x="409" y="16"/>
			<point x="443" y="31" type="curve"/>
			<point x="443" y="54" type="line"/>
			<point x="413" y="61"/>
			<point x="405" y="69"/>
		</contour>
	</outline>
</glyph>
<glyph name="longs" format="2">
	<advance width="267"/>
	<unicode hex="017F"/>
	<anchor x="138" y="397" name="top"/>
	<anchor x="138" y="25" name="bottom"/>
	<outline>
		<contour>
			<point x="15" y="0" type="line"/>
			<point x="254" y="0" type="line"/>
			<point x="254" y="23" type="line"/>
			<point x="190" y="30" type="line" smooth="yes"/>
			<point x="176" y="32"/>
			<point x="170" y="40"/>
			<point x="170" y="54" type="curve" smooth="yes"/>
			<point x="170" y="136"/>
			<point x="163" y="603"/>
			<point x="183" y="629" type="curve" smooth="yes"/>
			<point x="197" y="647"/>
			<point x="220" y="660"/>
			<point x="252" y="660" type="curve" smooth="yes"/>
			<point x="291" y="660"/>
			<point x="321" y="647"/>
			<point x="351" y="629" type="curve"/>
			<point x="369" y="647"/>
			<point x="382" y="669"/>
			<point x="387" y="689" type="curve"/>
			<point x="384" y="704"/>
			<point x="348" y="710"/>
			<point x="312" y="710" type="curve" smooth="yes"/>
			<point x="234" y="710"/>
			<point x="185" y="672"/>
			<point x="153" y="642" type="curve" smooth="yes"/>
			<point x="125" y="615"/>
			<point x="104" y="592"/>
			<point x="101" y="583" type="curve" smooth="yes"/>
			<point x="84" y="532"/>
			<point x="90" y="437"/>
			<point x="88" y="372" type="curve"/>
			<point x="33" y="372" type="line"/>
			<point x="33" y="346" type="line"/>
			<point x="87" y="317" type="line"/>
			<point x="86" y="54" type="line" smooth="yes"/>
			<point x="86" y="40"/>
			<point x="78" y="32"/>
			<point x="64" y="30" type="curve" smooth="yes"/>
			<point x="15" y="23" type="line"/>
		</contour>
	</outline>
</glyph>
<glyph name="alpha" format="2">
	<advance width="566"/>
	<unicode hex="03B1"/>
	<outline>
		<contour>
			<point x="555" y="61" type="line"/>
			<point x="445" y="35"/>
			<point x="357" y="104"/>
			<point x="357" y="200" type="curve" smooth="yes"/>
			<point x="357" y="286"/>
			<point x="413" y="364"/>
			<point x="464" y="396" type="curve"/>
			<point x="476" y="424" type="line"/>
			<point x="366" y="453" type="line"/>
			<point x="336" y="413"/>
			<point x="314" y="368"/>
			<point x="306" y="309" type="curve"/>
			<point x="269" y="363"/>
			<point x="224" y="400"/>
			<point x="170" y="400" type="curve" smooth="yes"/>
			<point x="70" y="400"/>
			<point x="25" y="286"/>
			<point x="25" y="194" type="curve" smooth="yes"/>
			<point x="25" y="75"/>
			<point x="89" y="-12"/>
			<point x="181" y="-12" type="curve" smooth="yes"/>
			<point x="234" y="-12"/>
			<point x="288" y="34"/>
			<point x="331" y="100" type="curve"/>
			<point x="350" y="53"/>
			<point x="377" y="12"/>
			<point x="413" y="-9" type="curve"/>
			<point x="561" y="34" type="line"/>
		</contour>
		<contour>
			<point x="184" y="65" type="curve" smooth="yes"/>
			<point x="115" y="65"/>
			<point x="70" y="132"/>
			<point x="70" y="184" type="curve" smooth="yes"/>
			<point x="70" y="264"/>
			<point x="129" y="315"/>
			<point x="190" y="315" type="curve" smooth="yes"/>
			<point x="218" y="315"/>
			<point x="248" y="308"/>
			<point x="301" y="265" type="curve"/>
			<point x="301" y="245" type="line" smooth="yes"/>
			<point x="301" y="215"/>
			<point x="306" y="178"/>
			<point x="317" y="142" type="curve"/>
			<point x="270" y="87"/>
			<point x="232" y="65"/>
		</contour>
	</outline>
</glyph>
<glyph name="theta" format="2">
	<advance width="232"/>
	<unicode hex="03B8"/>
	<outline>
		<contour>
			<point x="20" y="196" type="curve"/>
			<point x="20" y="196" type="line"/>
			<point x="20" y="78"/>
			<point x="60" y="-9"/>
			<point x="118" y="-9" type="curve"/>
			<point x="165" y="-9"/>
			<point x="212" y="77"/>
			<point x="212" y="205" type="curve"/>
			<point x="212" y="313"/>
			<point x="195" y="401"/>
			<point x="118" y="401" type="curve"/>
			<point x="49" y="401"/>
			<point x="20" y="314"/>
		</contour>
		<contour>
			<point x="65" y="209" type="curve"/>
			<point x="65" y="209" type="line"/>
			<point x="67" y="263"/>
			<point x="80" y="317"/>
			<point x="116" y="317" type="curve"/>
			<point x="152" y="317"/>
			<point x="167" y="276"/>
			<point x="168" y="211" type="curve"/>
			<point x="136" y="214"/>
			<point x="95" y="214"/>
		</contour>
		<contour>
			<point x="66" y="172" type="curve"/>
			<point x="66" y="172" type="line"/>
			<point x="96" y="174"/>
			<point x="137" y="176"/>
			<point x="167" y="174" type="curve"/>
			<point x="163" y="117"/>
			<point x="147" y="69"/>
			<point x="116" y="69" type="curve"/>
			<point x="83" y="69"/>
			<point x="69" y="120"/>
		</contour>
	</outline>
</glyph>
<glyph name="pi" format="2">
	<advance width="640"/>
	<unicode hex="03C0"/>
	<outline>
		<contour>
			<point x="634" y="342" type="curve"/>
			<point x="635" y="388" type="line"/>
			<point x="498" y="390"/>
			<point x="152" y="389"/>
			<point x="40" y="389" type="curve"/>
			<point x="5" y="293" type="line"/>
			<point x="27" y="282" type="line"/>
			<point x="52" y="305"/>
			<point x="77" y="334"/>
			<point x="167" y="339" type="curve" smooth="yes"/>
			<point x="175" y="339" type="line"/>
			<point x="181" y="227"/>
			<point x="178" y="108"/>
			<point x="172" y="-4" type="curve"/>
			<point x="262" y="-4" type="line"/>
			<point x="256" y="106"/>
			<point x="260" y="232"/>
			<point x="262" y="343" type="curve"/>
			<point x="308" y="344"/>
			<point x="354" y="344"/>
			<point x="400" y="344" type="curve"/>
			<point x="406" y="247"/>
			<point x="407" y="142"/>
			<point x="404" y="46" type="curve"/>
			<point x="421" y="10"/>
			<point x="462" y="-18"/>
			<point x="462" y="-9" type="curve"/>
			<point x="522" y="72" type="line"/>
			<point x="506" y="91"/>
			<point x="484" y="93"/>
			<point x="484" y="155" type="curve" smooth="yes"/>
			<point x="484" y="214"/>
			<point x="485" y="283"/>
			<point x="488" y="343" type="curve"/>
			<point x="538" y="343"/>
			<point x="587" y="342"/>
		</contour>
	</outline>
</glyph>
<glyph name="phi" format="2">
	<advance width="491"/>
	<unicode hex="03C6"/>
	<outline>
		<contour>
			<point x="471" y="194" type="curve" smooth="yes"/>
			<point x="471" y="307"/>
			<point x="379" y="399"/>
			<point x="251" y="399" type="curve" smooth="yes"/>
			<point x="123" y="399"/>
			<point x="20" y="305"/>
			<point x="20" y="192" type="curve" smooth="yes"/>
			<point x="20" y="76"/>
			<point x="96" y="3"/>
			<point x="216" y="-9" type="curve"/>
			<point x="212" y="-82"/>
			<point x="206" y="-154"/>
			<point x="198" y="-217" type="curve"/>
			<point x="203" y="-223" type="line"/>
			<point x="310" y="-206" type="line"/>
			<point x="308" y="-180" type="line"/>
			<point x="279" y="-165"/>
			<point x="274" y="-165"/>
			<point x="274" y="-123" type="curve" smooth="yes"/>
			<point x="274" y="-10" type="line"/>
			<point x="382" y="1"/>
			<point x="471" y="88"/>
		</contour>
		<contour>
			<point x="88" y="191" type="curve" smooth="yes"/>
			<point x="88" y="262"/>
			<point x="139" y="320"/>
			<point x="218" y="332" type="curve"/>
			<point x="223" y="249"/>
			<point x="223" y="146"/>
			<point x="219" y="44" type="curve"/>
			<point x="131" y="54"/>
			<point x="88" y="111"/>
		</contour>
		<contour>
			<point x="405" y="181" type="curve" smooth="yes"/>
			<point x="405" y="102"/>
			<point x="352" y="53"/>
			<point x="274" y="44" type="curve"/>
			<point x="274" y="145"/>
			<point x="274" y="246"/>
			<point x="275" y="332" type="curve"/>
			<point x="355" y="322"/>
			<point x="405" y="262"/>
		</contour>
	</outline>
</glyph>
<glyph name="psi" format="2">
	<advance width="655"/>
	<unicode hex="03C8"/>
	<outline>
		<contour>
			<point x="645" y="329" type="curve"/>
			<point x="617" y="335" type="line"/>
			<point x="550" y="186"/>
			<point x="482" y="82"/>
			<point x="378" y="64" type="curve"/>
			<point x="377" y="274"/>
			<point x="384" y="532"/>
			<point x="398" y="625" type="curve"/>
			<point x="301" y="625" type="line"/>
			<point x="311" y="521"/>
			<point x="316" y="286"/>
			<point x="314" y="63" type="curve"/>
			<point x="187" y="85"/>
			<point x="139" y="237"/>
			<point x="94" y="315" type="curve"/>
			<point x="10" y="287" type="line"/>
			<point x="18" y="257" type="line"/>
			<point x="68" y="279"/>
			<point x="119" y="32"/>
			<point x="314" y="11" type="curve"/>
			<point x="313" y="-94"/>
			<point x="310" y="-194"/>
			<point x="306" y="-273" type="curve"/>
			<point x="399" y="-266" type="line"/>
			<point x="401" y="-239" type="line"/>
			<point x="388" y="-229"/>
			<point x="381" y="-123"/>
			<point x="379" y="13" type="curve"/>
			<point x="513" y="35"/>
			<point x="608" y="166"/>
		</contour>
	</outline>
</glyph>
<glyph name="omegatonos" format="2">
	<advance width="584"/>
	<unicode hex="03CE"/>
	<outline>
		<contour>
			<point x="194" y="589" type="line"/>
			<point x="223" y="612"/>
			<point x="252" y="640"/>
			<point x="288" y="640" type="curve" smooth="yes"/>
			<point x="331" y="640"/>
			<point x="447" y="590"/>
			<point x="496" y="590" type="curve" smooth="yes"/>
			<point x="533" y="590"/>
			<point x="573" y="612"/>
			<point x="594" y="645" type="curve"/>
			<point x="535" y="666" type="line"/>
			<point x="516" y="647"/>
			<point x="505" y="640"/>
			<point x="485" y="640" type="curve" smooth="yes"/>
			<point x="437" y="640"/>
			<point x="358" y="668"/>
			<point x="296" y="668" type="curve" smooth="yes"/>
			<point x="253" y="668"/>
			<point x="188" y="661"/>
			<point x="144" y="614" type="curve"/>
		</contour>
		<contour>
			<point x="269" y="444" type="line"/>
			<point x="312" y="464"/>
			<point x="357" y="502"/>
			<point x="357" y="535" type="curve" smooth="yes"/>
			<point x="357" y="565"/>
			<point x="322" y="597"/>
			<point x="280" y="597" type="curve"/>
			<point x="220" y="535" type="line"/>
			<point x="223" y="523" type="line"/>
			<point x="256" y="535"/>
			<point x="277" y="513"/>
			<point x="277" y="495" type="curve" smooth="yes"/>
			<point x="277" y="477"/>
			<point x="273" y="473"/>
			<point x="254" y="456" type="curve"/>
		</contour>
		<contour>
			<point x="171" y="-10" type="curve" smooth="yes"/>
			<point x="216" y="-10"/>
			<point x="252" y="25"/>
			<point x="281" y="82" type="curve"/>
			<point x="295" y="21"/>
			<point x="338" y="-10"/>
			<point x="391" y="-10" type="curve" smooth="yes"/>
			<point x="454" y="-10"/>
			<point x="529" y="81"/>
			<point x="527" y="194" type="curve" smooth="yes"/>
			<point x="524" y="323"/>
			<point x="437" y="404"/>
			<point x="300" y="396" type="curve"/>
			<point x="309" y="302" type="line"/>
			<point x="384" y="320"/>
			<point x="490" y="280"/>
			<point x="490" y="166" type="curve" smooth="yes"/>
			<point x="490" y="112"/>
			<point x="452" y="63"/>
			<point x="383" y="63" type="curve" smooth="yes"/>
			<point x="346" y="63"/>
			<point x="314" y="82"/>
			<point x="296" y="114" type="curve"/>
			<point x="317" y="159"/>
			<point x="324" y="200"/>
			<point x="319" y="234" type="curve"/>
			<point x="254" y="245" type="line"/>
			<point x="243" y="234" type="line"/>
			<point x="241" y="190"/>
			<point x="248" y="149"/>
			<point x="266" y="114" type="curve"/>
			<point x="248" y="82"/>
			<point x="216" y="64"/>
			<point x="179" y="64" type="curve" smooth="yes"/>
			<point x="110" y="64"/>
			<point x="73" y="112"/>
			<point x="73" y="166" type="curve" smooth="yes"/>
			<point x="73" y="280"/>
			<point x="189" y="318"/>
			<point x="246" y="302" type="curve"/>
			<point x="255" y="396" type="line"/>
			<point x="143" y="404"/>
			<point x="38" y="322"/>
			<point x="35" y="183" type="curve" smooth="yes"/>
			<point x="32" y="80"/>
			<point x="88" y="-10"/>
		</contour>
	</outline>
</glyph>
<glyph name="p_bardes" format="2">
	<advance width="506"/>
	<unicode hex="A750"/>
	<anchor x="261" y="397" name="top"/>
	<anchor x="261" y="25" name="bottom"/>
	<outline>
		<contour>
			<point x="255" y="0" type="curve" smooth="yes"/>
			<point x="357" y="0"/>
			<point x="481" y="72"/>
			<point x="481" y="210" type="curve" smooth="yes"/>
			<point x="481" y="338"/>
			<point x="388" y="399"/>
			<point x="276" y="399" type="curve" smooth="yes"/>
			<point x="257" y="399"/>
			<point x="195" y="365"/>
			<point x="166" y="346" type="curve"/>
			<point x="166" y="412" type="line"/>
			<point x="144" y="425" type="line"/>
			<point x="105" y="393"/>
			<point x="66" y="364"/>
			<point x="32" y="346" type="curve"/>
			<point x="32" y="319" type="line"/>
			<point x="74" y="319"/>
			<point x="80" y="296"/>
			<point x="81" y="255" type="curve" smooth="yes"/>
			<point x="84" y="120"/>
			<point x="86" y="-4"/>
			<point x="83" y="-135" type="curve"/>
			<point x="74" y="-132"/>
			<point x="65" y="-129"/>
			<point x="57" y="-125" type="curve"/>
			<point x="10" y="-160" type="line"/>
			<point x="5" y="-169" type="line"/>
			<point x="25" y="-180"/>
			<point x="51" y="-189"/>
			<point x="81" y="-196" type="curve"/>
			<point x="81" y="-206" type="line" smooth="yes"/>
			<point x="80" y="-238"/>
			<point x="76" y="-263"/>
			<point x="49" y="-271" type="curve" smooth="yes"/>
			<point x="33" y="-276" type="line"/>
			<point x="33" y="-300" type="line"/>
			<point x="249" y="-300" type="line"/>
			<point x="249" y="-272" type="line"/>
			<point x="193" y="-263" type="line" smooth="yes"/>
			<point x="172" y="-260"/>
			<point x="165" y="-259"/>
			<point x="165" y="-243" type="curve" smooth="yes"/>
			<point x="165" y="-209" type="line"/>
			<point x="242" y="-218"/>
			<point x="325" y="-219"/>
			<point x="376" y="-213" type="curve"/>
			<point x="385" y="-184" type="line"/>
			<point x="381" y="-181" type="line"/>
			<point x="327" y="-184"/>
			<point x="244" y="-177"/>
			<point x="165" y="-159" type="curve"/>
			<point x="165" y="-9" type="line"/>
			<point x="184" y="2"/>
			<point x="231" y="0"/>
		</contour>
		<contour>
			<point x="166" y="316" type="line"/>
			<point x="192" y="325"/>
			<point x="217" y="336"/>
			<point x="255" y="336" type="curve" smooth="yes"/>
			<point x="330" y="336"/>
			<point x="397" y="283"/>
			<point x="397" y="189" type="curve" smooth="yes"/>
			<point x="397" y="99"/>
			<point x="330" y="38"/>
			<point x="249" y="38" type="curve" smooth="yes"/>
			<point x="209" y="38"/>
			<point x="188" y="41"/>
			<point x="165" y="46" type="curve"/>
		</contour>
	</outline>
</glyph>
<glyph name="p_flour" format="2">
	<advance width="495"/>
	<unicode hex="A753"/>
	<anchor x="250" y="397" name="top"/>
	<anchor x="250" y="25" name="bottom"/>
	<outline>
		<contour>
			<point x="265" y="399" type="curve" smooth="yes"/>
			<point x="246" y="399"/>
			<point x="184" y="365"/>
			<point x="155" y="346" type="curve"/>
			<point x="155" y="412" type="line"/>
			<point x="133" y="425" type="line"/>
			<point x="94" y="393"/>
			<point x="55" y="364"/>
			<point x="21" y="346" type="curve"/>
			<point x="21" y="319" type="line"/>
			<point x="63" y="319"/>
			<point x="69" y="296"/>
			<point x="70" y="255" type="curve" smooth="yes"/>
			<point x="72" y="169"/>
			<point x="73" y="88"/>
			<point x="73" y="6" type="curve"/>
			<point x="-65" y="-30"/>
			<point x="-170" y="-73"/>
			<point x="-170" y="-105" type="curve" smooth="yes"/>
			<point x="-170" y="-126"/>
			<point x="-127" y="-164"/>
			<point x="-109" y="-188" type="curve"/>
			<point x="-84" y="-177" type="line"/>
			<point x="-113" y="-115"/>
			<point x="-76" y="-65"/>
			<point x="73" y="-23" type="curve"/>
			<point x="73" y="-83"/>
			<point x="72" y="-143"/>
			<point x="70" y="-206" type="curve" smooth="yes"/>
			<point x="69" y="-238"/>
			<point x="65" y="-263"/>
			<point x="38" y="-271" type="curve" smooth="yes"/>
			<point x="22" y="-276" type="line"/>
			<point x="22" y="-300" type="line"/>
			<point x="238" y="-300" type="line"/>
			<point x="238" y="-272" type="line"/>
			<point x="182" y="-263" type="line" smooth="yes"/>
			<point x="161" y="-260"/>
			<point x="154" y="-259"/>
			<point x="154" y="-243" type="curve" smooth="yes"/>
			<point x="154" y="-9" type="line"/>
			<point x="173" y="2"/>
			<point x="220" y="0"/>
			<point x="244" y="0" type="curve" smooth="yes"/>
			<point x="346" y="0"/>
			<point x="470" y="72"/>
			<point x="470" y="210" type="curve" smooth="yes"/>
			<point x="470" y="338"/>
			<point x="377" y="399"/>
		</contour>
		<contour>
			<point x="238" y="38" type="curve" smooth="yes"/>
			<point x="198" y="38"/>
			<point x="177" y="41"/>
			<point x="154" y="46" type="curve"/>
			<point x="155" y="316" type="line"/>
			<point x="181" y="325"/>
			<point x="206" y="336"/>
			<point x="244" y="336" type="curve" smooth="yes"/>
			<point x="319" y="336"/>
			<point x="386" y="283"/>
			<point x="386" y="189" type="curve" smooth="yes"/>
			<point x="386" y="99"/>
			<point x="319" y="38"/>
		</contour>
	</outline>
</glyph>
<glyph name="rum" format="2">
	<advance width="576"/>
	<unicode hex="A775"/>
	<outline>
		<contour>
			<point x="133" y="-264" type="line"/>
			<point x="207" y="-264" type="line"/>
			<point x="329" y="8" type="line"/>
			<point x="368" y="5"/>
			<point x="408" y="-13"/>
			<point x="431" y="-13" type="curve" smooth="yes"/>
			<point x="445" y="-13"/>
			<point x="520" y="49"/>
			<point x="566" y="84" type="curve"/>
			<point x="549" y="99" type="line"/>
			<point x="517" y="85"/>
			<point x="487" y="67"/>
			<point x="445" y="67" type="curve" smooth="yes"/>
			<point x="417" y="67"/>
			<point x="377" y="71"/>
			<point x="350" y="77" type="curve"/>
			<point x="403" y="221" type="line" smooth="yes"/>
			<point x="420" y="267"/>
			<point x="447" y="310"/>
			<point x="507" y="310" type="curve"/>
			<point x="518" y="326" type="line"/>
			<point x="490" y="358"/>
			<point x="455" y="395"/>
			<point x="445" y="395" type="curve" smooth="yes"/>
			<point x="412" y="395"/>
			<point x="380" y="363"/>
			<point x="373" y="332" type="curve" smooth="yes"/>
			<point x="353" y="248"/>
			<point x="352" y="186"/>
			<point x="312" y="79" type="curve"/>
			<point x="225" y="79"/>
			<point x="173" y="71"/>
			<point x="108" y="63" type="curve"/>
			<point x="162" y="158"/>
			<point x="213" y="231"/>
			<point x="213" y="289" type="curve" smooth="yes"/>
			<point x="213" y="370"/>
			<point x="144" y="397"/>
			<point x="106" y="397" type="curve" smooth="yes"/>
			<point x="96" y="397"/>
			<point x="50" y="333"/>
			<point x="27" y="309" type="curve"/>
			<point x="40" y="294" type="line"/>
			<point x="66" y="306"/>
			<point x="82" y="314"/>
			<point x="98" y="314" type="curve" smooth="yes"/>
			<point x="134" y="314"/>
			<point x="145" y="290"/>
			<point x="145" y="247" type="curve" smooth="yes"/>
			<point x="145" y="184"/>
			<point x="90" y="88"/>
			<point x="25" y="7" type="curve"/>
			<point x="37" y="-11" type="line"/>
			<point x="113" y="0"/>
			<point x="187" y="12"/>
			<point x="288" y="10" type="curve"/>
			<point x="245" y="-85"/>
			<point x="185" y="-167"/>
			<point x="133" y="-255" type="curve"/>
		</contour>
	</outline>
</glyph>
<glyph name="t_acute" format="2">
	<advance width="486"/>
	<unicode hex="E6E2"/>
	<anchor x="135" y="25" name="bottom"/>
	<anchor x="135" y="397" name="top"/>
	<anchor x="254" y="397" name="topright"/>
	<anchor x="135" y="211" name="center"/>
	<outline>
		<contour>
			<point x="229" y="465" type="line"/>
			<point x="391" y="468"/>
			<point x="476" y="499"/>
			<point x="476" y="578" type="curve" smooth="yes"/>
			<point x="476" y="600"/>
			<point x="471" y="627"/>
			<point x="436" y="652" type="curve"/>
			<point x="433" y="652" type="line"/>
			<point x="391" y="583" type="line"/>
			<point x="392" y="580" type="line"/>
			<point x="403" y="575"/>
			<point x="412" y="568"/>
			<point x="412" y="554" type="curve" smooth="yes"/>
			<point x="412" y="529"/>
			<point x="378" y="502"/>
			<point x="318" y="491" type="curve"/>
			<point x="318" y="549"/>
			<point x="287" y="592"/>
			<point x="223" y="592" type="curve" smooth="yes"/>
			<point x="219" y="592"/>
			<point x="176" y="562"/>
			<point x="165" y="554" type="curve"/>
			<point x="166" y="550" type="line"/>
			<point x="220" y="546"/>
			<point x="273" y="497"/>
			<point x="229" y="475" type="curve"/>
		</contour>
		<contour>
			<point x="143" y="-10" type="curve" smooth="yes"/>
			<point x="185" y="-10"/>
			<point x="254" y="48"/>
			<point x="294" y="87" type="curve"/>
			<point x="287" y="106" type="line"/>
			<point x="273" y="98"/>
			<point x="218" y="60"/>
			<point x="182" y="60" type="curve" smooth="yes"/>
			<point x="156" y="60"/>
			<point x="147" y="72"/>
			<point x="147" y="97" type="curve" smooth="yes"/>
			<point x="147" y="353" type="line"/>
			<point x="291" y="353" type="line"/>
			<point x="294" y="390" type="line"/>
			<point x="147" y="390" type="line"/>
			<point x="148" y="479" type="line"/>
			<point x="134" y="479" type="line"/>
			<point x="106" y="437"/>
			<point x="64" y="405"/>
			<point x="20" y="367" type="curve"/>
			<point x="20" y="353" type="line"/>
			<point x="63" y="353" type="line"/>
			<point x="63" y="63" type="line" smooth="yes"/>
			<point x="63" y="37"/>
			<point x="99" y="-10"/>
		</contour>
	</outline>
</glyph>
<glyph name="Q.ss01" format="2">
	<advance width="900"/>
	<outline>
		<contour>
			<point x="1380" y="-163" type="curve"/>
			<point x="1372" y="-138" type="line"/>
			<point x="1264" y="-177"/>
			<point x="1172" y="-185"/>
			<point x="1061" y="-185" type="curve" smooth="yes"/>
			<point x="841" y="-185"/>
			<point x="710" y="-111"/>
			<point x="606" y="25" type="curve"/>
			<point x="740" y="79"/>
			<point x="829" y="199"/>
			<point x="829" y="361" type="curve" smooth="yes"/>
			<point x="829" y="575"/>
			<point x="660" y="708"/>
			<point x="436" y="708" type="curve" smooth="yes"/>
			<point x="205" y="708"/>
			<point x="45" y="545"/>
			<point x="45" y="342" type="curve" smooth="yes"/>
			<point x="45" y="131"/>
			<point x="211" y="-7"/>
			<point x="436" y="-7" type="curve" smooth="yes"/>
			<point x="445" y="-7"/>
			<point x="454" y="-7"/>
			<point x="463" y="-6" type="curve"/>
			<point x="623" y="-162"/>
			<point x="810" y="-235"/>
			<point x="1025" y="-235" type="curve" smooth="yes"/>
			<point x="1160" y="-235"/>
			<point x="1271" y="-209"/>
		</contour>
		<contour>
			<point x="158" y="363" type="curve" smooth="yes"/>
			<point x="158" y="525"/>
			<point x="269" y="659"/>
			<point x="421" y="659" type="curve" smooth="yes"/>
			<point x="590" y="659"/>
			<point x="717" y="513"/>
			<point x="717" y="342" type="curve" smooth="yes"/>
			<point x="717" y="179"/>
			<point x="601" y="47"/>
			<point x="451" y="47" type="curve" smooth="yes"/>
			<point x="279" y="47"/>
			<point x="158" y="183"/>
		</contour>
	</outline>
</glyph>
<glyph name="Q_u" format="2">
	<advance width="1415"/>
	<outline>
		<contour>
			<point x="1385" y="-163" type="curve"/>
			<point x="1377" y="-138" type="line"/>
			<point x="1269" y="-177"/>
			<point x="1177" y="-185"/>
			<point x="1066" y="-185" type="curve" smooth="yes"/>
			<point x="845" y="-185"/>
			<point x="714" y="-110"/>
			<point x="610" y="26" type="curve"/>
			<point x="742" y="81"/>
			<point x="829" y="201"/>
			<point x="829" y="361" type="curve" smooth="yes"/>
			<point x="829" y="575"/>
			<point x="660" y="708"/>
			<point x="436" y="708" type="curve" smooth="yes"/>
			<point x="205" y="708"/>
			<point x="45" y="545"/>
			<point x="45" y="342" type="curve" smooth="yes"/>
			<point x="45" y="131"/>
			<point x="211" y="-7"/>
			<point x="436" y="-7" type="curve" smooth="yes"/>
			<point x="447" y="-7"/>
			<point x="458" y="-7"/>
			<point x="468" y="-6" type="curve"/>
			<point x="628" y="-161"/>
			<point x="815" y="-235"/>
			<point x="1030" y="-235" type="curve" smooth="yes"/>
			<point x="1165" y="-235"/>
			<point x="1276" y="-209"/>
		</contour>
		<contour>
			<point x="158" y="363" type="curve" smooth="yes"/>
			<point x="158" y="525"/>
			<point x="269" y="659"/>
			<point x="421" y="659" type="curve" smooth="yes"/>
			<point x="590" y="659"/>
			<point x="717" y="513"/>
			<point x="717" y="342" type="curve" smooth="yes"/>
			<point x="717" y="179"/>
			<point x="601" y="47"/>
			<point x="451" y="47" type="curve" smooth="yes"/>
			<point x="279" y="47"/>
			<point x="158" y="183"/>
		</contour>
		<contour>
			<point x="975" y="284" type="curve" smooth="yes"/>
			<point x="975" y="117" type="line" smooth="yes"/>
			<point x="975" y="42"/>
			<point x="1001" y="-11"/>
			<point x="1091" y="-11" type="curve" smooth="yes"/>
			<point x="1158" y="-11"/>
			<point x="1215" y="42"/>
			<point x="1253" y="61" type="curve"/>
			<point x="1257" y="-8" type="line"/>
			<point x="1269" y="-13" type="line"/>
			<point x="1300" y="-1"/>
			<point x="1334" y="22"/>
			<point x="1370" y="38" type="curve"/>
			<point x="1370" y="68" type="line"/>
			<point x="1338" y="65"/>
			<point x="1330" y="68"/>
			<point x="1330" y="96" type="curve" smooth="yes"/>
			<point x="1330" y="311" type="line" smooth="yes"/>
			<point x="1330" y="339"/>
			<point x="1333" y="372"/>
			<point x="1337" y="399" type="curve"/>
			<point x="1329" y="405" type="line"/>
			<point x="1276" y="387"/>
			<point x="1231" y="372"/>
			<point x="1176" y="363" type="curve"/>
			<point x="1176" y="337" type="line"/>
			<point x="1221" y="326" type="line" smooth="yes"/>
			<point x="1243" y="321"/>
			<point x="1250" y="315"/>
			<point x="1250" y="291" type="curve" smooth="yes"/>
			<point x="1250" y="92" type="line"/>
			<point x="1214" y="69"/>
			<point x="1180" y="57"/>
			<point x="1136" y="57" type="curve" smooth="yes"/>
			<point x="1076" y="57"/>
			<point x="1055" y="93"/>
			<point x="1055" y="147" type="curve" smooth="yes"/>
			<point x="1055" y="289" type="line" smooth="yes"/>
			<point x="1055" y="317"/>
			<point x="1058" y="364"/>
			<point x="1063" y="401" type="curve"/>
			<point x="1052" y="407" type="line"/>
			<point x="1017" y="391"/>
			<point x="970" y="375"/>
			<point x="924" y="363" type="curve"/>
			<point x="924" y="338" type="line"/>
			<point x="954" y="335"/>
			<point x="975" y="317"/>
		</contour>
	</outline>
</glyph>
<glyph name="Q_u.ss01" format="2">
	<advance width="1410"/>
	<outline>
		<contour>
			<point x="603" y="23" type="curve"/>
			<point x="739" y="77"/>
			<point x="829" y="198"/>
			<point x="829" y="361" type="curve" smooth="yes"/>
			<point x="829" y="575"/>
			<point x="660" y="708"/>
			<point x="436" y="708" type="curve" smooth="yes"/>
			<point x="205" y="708"/>
			<point x="45" y="545"/>
			<point x="45" y="342" type="curve" smooth="yes"/>
			<point x="45" y="131"/>
			<point x="211" y="-7"/>
			<point x="436" y="-7" type="curve" smooth="yes"/>
			<point x="444" y="-7"/>
			<point x="452" y="-7"/>
			<point x="460" y="-6" type="curve"/>
			<point x="602" y="-126"/>
			<point x="782" y="-179"/>
			<point x="985" y="-214" type="curve"/>
			<point x="993" y="-189" type="line"/>
			<point x="837" y="-164"/>
			<point x="699" y="-99"/>
		</contour>
		<contour>
			<point x="158" y="363" type="curve" smooth="yes"/>
			<point x="158" y="525"/>
			<point x="269" y="659"/>
			<point x="421" y="659" type="curve" smooth="yes"/>
			<point x="590" y="659"/>
			<point x="717" y="513"/>
			<point x="717" y="342" type="curve" smooth="yes"/>
			<point x="717" y="179"/>
			<point x="601" y="47"/>
			<point x="451" y="47" type="curve" smooth="yes"/>
			<point x="279" y="47"/>
			<point x="158" y="183"/>
		</contour>
		<contour>
			<point x="1340" y="96" type="curve" smooth="yes"/>
			<point x="1340" y="311" type="line" smooth="yes"/>
			<point x="1340" y="339"/>
			<point x="1343" y="372"/>
			<point x="1347" y="399" type="curve"/>
			<point x="1339" y="405" type="line"/>
			<point x="1286" y="387"/>
			<point x="1241" y="372"/>
			<point x="1186" y="363" type="curve"/>
			<point x="1186" y="337" type="line"/>
			<point x="1231" y="326" type="line" smooth="yes"/>
			<point x="1253" y="321"/>
			<point x="1260" y="315"/>
			<point x="1260" y="291" type="curve" smooth="yes"/>
			<point x="1260" y="92" type="line"/>
			<point x="1224" y="69"/>
			<point x="1190" y="57"/>
			<point x="1146" y="57" type="curve" smooth="yes"/>
			<point x="1086" y="57"/>
			<point x="1065" y="93"/>
			<point x="1065" y="147" type="curve" smooth="yes"/>
			<point x="1065" y="289" type="line" smooth="yes"/>
			<point x="1065" y="317"/>
			<point x="1068" y="364"/>
			<point x="1073" y="401" type="curve"/>
			<point x="1062" y="407" type="line"/>
			<point x="1027" y="391"/>
			<point x="980" y="375"/>
			<point x="934" y="363" type="curve"/>
			<point x="934" y="338" type="line"/>
			<point x="964" y="335"/>
			<point x="985" y="317"/>
			<point x="985" y="284" type="curve" smooth="yes"/>
			<point x="985" y="117" type="line" smooth="yes"/>
			<point x="985" y="42"/>
			<point x="1011" y="-11"/>
			<point x="1101" y="-11" type="curve" smooth="yes"/>
			<point x="1168" y="-11"/>
			<point x="1225" y="42"/>
			<point x="1263" y="61" type="curve"/>
			<point x="1267" y="-8" type="line"/>
			<point x="1279" y="-13" type="line"/>
			<point x="1310" y="-1"/>
			<point x="1344" y="22"/>
			<point x="1380" y="38" type="curve"/>
			<point x="1380" y="68" type="line"/>
			<point x="1348" y="65"/>
			<point x="1340" y="68"/>
		</contour>
	</outline>
</glyph>
<glyph name="c_t" format="2">
	<advance width="675"/>
	<anchor x="176" y="397" name="top"/>
	<anchor x="176" y="25" name="bottom"/>
	<outline>
		<contour>
			<point x="208" y="-9" type="curve"/>
			<point x="208" y="-9" type="line"/>
			<point x="307" y="-9"/>
			<point x="355" y="67"/>
			<point x="386" y="156" type="curve"/>
			<point x="364" y="168" type="line"/>
			<point x="335" y="100"/>
			<point x="287" y="52"/>
			<point x="227" y="53" type="curve"/>
			<point x="133" y="54"/>
			<point x="90" y="129"/>
			<point x="90" y="204" type="curve"/>
			<point x="90" y="290"/>
			<point x="120" y="328"/>
			<point x="179" y="328" type="curve"/>
			<point x="235" y="328"/>
			<point x="268" y="321"/>
			<point x="311" y="307" type="curve"/>
			<point x="323" y="313" type="line"/>
			<point x="297" y="431"/>
			<point x="320" y="507"/>
			<point x="404" y="507" type="curve"/>
			<point x="478" y="507"/>
			<point x="488" y="450"/>
			<point x="488" y="415" type="curve"/>
			<point x="488" y="391"/>
			<point x="473" y="376"/>
			<point x="445" y="366" type="curve"/>
			<point x="445" y="352" type="line"/>
			<point x="478" y="352" type="line"/>
			<point x="480" y="62" type="line" smooth="yes"/>
			<point x="480" y="27"/>
			<point x="511" y="-7"/>
			<point x="535" y="-8" type="curve"/>
			<point x="578" y="-10"/>
			<point x="634" y="22"/>
			<point x="661" y="42" type="curve"/>
			<point x="660" y="64" type="line"/>
			<point x="645" y="61"/>
			<point x="620" y="57"/>
			<point x="595" y="57" type="curve"/>
			<point x="575" y="57"/>
			<point x="559" y="69"/>
			<point x="559" y="95" type="curve"/>
			<point x="559" y="351" type="line"/>
			<point x="661" y="351" type="line"/>
			<point x="665" y="390" type="line"/>
			<point x="562" y="390" type="line"/>
			<point x="562" y="454"/>
			<point x="559" y="554"/>
			<point x="416" y="554" type="curve"/>
			<point x="314" y="554"/>
			<point x="265" y="474"/>
			<point x="285" y="382" type="curve"/>
			<point x="264" y="389"/>
			<point x="234" y="399"/>
			<point x="213" y="399" type="curve"/>
			<point x="125" y="399"/>
			<point x="25" y="270"/>
			<point x="25" y="176" type="curve"/>
			<point x="25" y="82"/>
			<point x="81" y="-9"/>
		</contour>
	</outline>
</glyph>
<glyph name="d_strok" format="2">
	<advance width="505"/>
	<anchor x="253" y="25" name="bottom"/>
	<anchor x="253" y="397" name="top"/>
	<anchor x="489" y="397" name="topright"/>
	<anchor x="253" y="211" name="center"/>
	<outline>
		<contour>
			<point x="625" y="543" type="curve" smooth="yes"/>
			<point x="625" y="622"/>
			<point x="580" y="666"/>
			<point x="518" y="702" type="curve"/>
			<point x="453" y="647" type="line"/>
			<point x="453" y="625" type="line"/>
			<point x="524" y="623"/>
			<point x="559" y="569"/>
			<point x="559" y="519" type="curve" smooth="yes"/>
			<point x="559" y="438"/>
			<point x="516" y="386"/>
			<point x="429" y="340" type="curve"/>
			<point x="431" y="593" type="line" smooth="yes"/>
			<point x="431" y="630"/>
			<point x="436" y="678"/>
			<point x="440" y="711" type="curve"/>
			<point x="422" y="723" type="line"/>
			<point x="379" y="690"/>
			<point x="328" y="666"/>
			<point x="288" y="649" type="curve"/>
			<point x="288" y="621" type="line"/>
			<point x="304" y="620" type="line" smooth="yes"/>
			<point x="336" y="618"/>
			<point x="348" y="599"/>
			<point x="348" y="560" type="curve" smooth="yes"/>
			<point x="346" y="392" type="line"/>
			<point x="309" y="396"/>
			<point x="267" y="400"/>
			<point x="221" y="400" type="curve" smooth="yes"/>
			<point x="193" y="400"/>
			<point x="25" y="343"/>
			<point x="25" y="175" type="curve" smooth="yes"/>
			<point x="25" y="53"/>
			<point x="116" y="-10"/>
			<point x="212" y="-10" type="curve" smooth="yes"/>
			<point x="237" y="-10"/>
			<point x="303" y="43"/>
			<point x="348" y="70" type="curve"/>
			<point x="353" y="-8" type="line"/>
			<point x="365" y="-13" type="line"/>
			<point x="402" y="2"/>
			<point x="445" y="19"/>
			<point x="484" y="34" type="curve"/>
			<point x="484" y="62" type="line"/>
			<point x="455" y="59"/>
			<point x="427" y="55"/>
			<point x="427" y="88" type="curve" smooth="yes"/>
			<point x="429" y="312" type="line"/>
			<point x="534" y="349"/>
			<point x="625" y="423"/>
		</contour>
		<contour>
			<point x="348" y="113" type="line"/>
			<point x="319" y="76"/>
			<point x="277" y="56"/>
			<point x="238" y="56" type="curve" smooth="yes"/>
			<point x="152" y="56"/>
			<point x="97" y="119"/>
			<point x="97" y="212" type="curve" smooth="yes"/>
			<point x="97" y="290"/>
			<point x="149" y="355"/>
			<point x="228" y="353" type="curve" smooth="yes"/>
			<point x="304" y="352"/>
			<point x="348" y="296"/>
			<point x="348" y="222" type="curve" smooth="yes"/>
		</contour>
	</outline>
</glyph>
<glyph name="f_f" format="2">
	<advance width="605"/>
	<anchor x="128" y="397" name="top"/>
	<anchor x="128" y="25" name="bottom"/>
	<outline>
		<contour>
			<point x="20" y="25" type="line"/>
			<point x="20" y="0" type="line"/>
			<point x="254" y="0" type="line"/>
			<point x="254" y="25" type="line"/>
			<point x="190" y="32" type="line" smooth="yes"/>
			<point x="176" y="34"/>
			<point x="170" y="42"/>
			<point x="170" y="56" type="curve"/>
			<point x="171" y="317" type="line"/>
			<point x="417" y="317" type="line"/>
			<point x="416" y="56" type="line" smooth="yes"/>
			<point x="416" y="42"/>
			<point x="408" y="34"/>
			<point x="394" y="32" type="curve"/>
			<point x="345" y="25" type="line"/>
			<point x="345" y="0" type="line"/>
			<point x="580" y="0" type="line"/>
			<point x="580" y="25" type="line"/>
			<point x="516" y="32" type="line" smooth="yes"/>
			<point x="502" y="34"/>
			<point x="496" y="42"/>
			<point x="496" y="56" type="curve"/>
			<point x="497" y="317" type="line"/>
			<point x="590" y="317" type="line"/>
			<point x="593" y="372" type="line"/>
			<point x="497" y="372" type="line"/>
			<point x="497" y="461"/>
			<point x="487" y="602"/>
			<point x="508" y="629" type="curve"/>
			<point x="522" y="647"/>
			<point x="556" y="660"/>
			<point x="588" y="660" type="curve"/>
			<point x="627" y="660"/>
			<point x="665" y="645"/>
			<point x="695" y="627" type="curve"/>
			<point x="713" y="645"/>
			<point x="730" y="663"/>
			<point x="730" y="676" type="curve"/>
			<point x="718" y="703"/>
			<point x="654" y="710"/>
			<point x="628" y="710" type="curve"/>
			<point x="586" y="710"/>
			<point x="553" y="690"/>
			<point x="500" y="663" type="curve"/>
			<point x="471" y="673"/>
			<point x="386" y="706"/>
			<point x="339" y="706" type="curve"/>
			<point x="314" y="706"/>
			<point x="222" y="676"/>
			<point x="182" y="653" type="curve"/>
			<point x="149" y="634"/>
			<point x="110" y="597"/>
			<point x="107" y="588" type="curve"/>
			<point x="90" y="537"/>
			<point x="96" y="442"/>
			<point x="94" y="377" type="curve"/>
			<point x="28" y="342" type="line"/>
			<point x="28" y="317" type="line"/>
			<point x="91" y="317" type="line"/>
			<point x="90" y="56" type="line" smooth="yes"/>
			<point x="90" y="42"/>
			<point x="82" y="34"/>
			<point x="68" y="32" type="curve"/>
		</contour>
		<contour>
			<point x="418" y="372" type="curve"/>
			<point x="171" y="372" type="line"/>
			<point x="168" y="403"/>
			<point x="169" y="433"/>
			<point x="169" y="464" type="curve"/>
			<point x="169" y="588"/>
			<point x="190" y="626"/>
			<point x="241" y="655" type="curve"/>
			<point x="384" y="649"/>
			<point x="423" y="633"/>
			<point x="423" y="567" type="curve"/>
			<point x="423" y="499"/>
			<point x="422" y="421"/>
		</contour>
	</outline>
</glyph>
<glyph name="f_i" format="2">
	<advance width="518"/>
	<anchor x="139" y="397" name="top"/>
	<anchor x="139" y="25" name="bottom"/>
	<outline>
		<contour>
			<point x="20" y="25" type="line"/>
			<point x="20" y="0" type="line"/>
			<point x="255" y="0" type="line"/>
			<point x="255" y="25" type="line"/>
			<point x="191" y="32" type="line" smooth="yes"/>
			<point x="177" y="34"/>
			<point x="171" y="42"/>
			<point x="171" y="56" type="curve"/>
			<point x="172" y="328" type="line"/>
			<point x="265" y="328" type="line"/>
			<point x="268" y="372" type="line"/>
			<point x="172" y="372" type="line"/>
			<point x="172" y="461"/>
			<point x="171" y="602"/>
			<point x="192" y="629" type="curve"/>
			<point x="206" y="647"/>
			<point x="231" y="660"/>
			<point x="263" y="660" type="curve"/>
			<point x="302" y="660"/>
			<point x="340" y="645"/>
			<point x="370" y="627" type="curve"/>
			<point x="388" y="645"/>
			<point x="405" y="663"/>
			<point x="405" y="676" type="curve"/>
			<point x="393" y="703"/>
			<point x="339" y="710"/>
			<point x="313" y="710" type="curve"/>
			<point x="255" y="710"/>
			<point x="194" y="663"/>
			<point x="162" y="633" type="curve"/>
			<point x="134" y="606"/>
			<point x="117" y="581"/>
			<point x="114" y="572" type="curve"/>
			<point x="97" y="521"/>
			<point x="95" y="437"/>
			<point x="93" y="372" type="curve"/>
			<point x="28" y="372" type="line"/>
			<point x="28" y="328" type="line"/>
			<point x="92" y="328" type="line"/>
			<point x="91" y="56" type="line" smooth="yes"/>
			<point x="91" y="42"/>
			<point x="83" y="34"/>
			<point x="69" y="32" type="curve"/>
		</contour>
		<contour>
			<point x="353" y="3" type="curve"/>
			<point x="355" y="-10" type="line"/>
			<point x="398" y="-5"/>
			<point x="441" y="-1"/>
			<point x="503" y="2" type="curve"/>
			<point x="503" y="27" type="line"/>
			<point x="454" y="31"/>
			<point x="445" y="32"/>
			<point x="445" y="58" type="curve"/>
			<point x="445" y="156"/>
			<point x="440" y="295"/>
			<point x="454" y="392" type="curve"/>
			<point x="442" y="403" type="line"/>
			<point x="412" y="392"/>
			<point x="346" y="375"/>
			<point x="313" y="362" type="curve"/>
			<point x="313" y="337" type="line"/>
			<point x="344" y="335"/>
			<point x="363" y="329"/>
			<point x="364" y="287" type="curve"/>
			<point x="365" y="233"/>
			<point x="369" y="84"/>
		</contour>
	</outline>
</glyph>
<glyph name="f_l" format="2">
	<advance width="560"/>
	<outline>
		<contour>
			<point x="545" y="25" type="line"/>
			<point x="517" y="30" type="line"/>
			<point x="496" y="34"/>
			<point x="489" y="54"/>
			<point x="489" y="89" type="curve"/>
			<point x="489" y="541" type="line" smooth="yes"/>
			<point x="489" y="580"/>
			<point x="493" y="658"/>
			<point x="497" y="706" type="curve"/>
			<point x="473" y="710" type="line"/>
			<point x="464" y="696"/>
			<point x="453" y="681"/>
			<point x="441" y="665" type="curve"/>
			<point x="403" y="685"/>
			<point x="362" y="700"/>
			<point x="330" y="700" type="curve"/>
			<point x="305" y="700"/>
			<point x="227" y="676"/>
			<point x="187" y="653" type="curve"/>
			<point x="154" y="634"/>
			<point x="111" y="597"/>
			<point x="108" y="588" type="curve"/>
			<point x="91" y="537"/>
			<point x="97" y="442"/>
			<point x="95" y="377" type="curve"/>
			<point x="28" y="341" type="line"/>
			<point x="28" y="317" type="line"/>
			<point x="92" y="317" type="line"/>
			<point x="91" y="57" type="line" smooth="yes"/>
			<point x="91" y="43"/>
			<point x="83" y="35"/>
			<point x="69" y="33" type="curve"/>
			<point x="20" y="26" type="line"/>
			<point x="20" y="0" type="line"/>
			<point x="259" y="0" type="line"/>
			<point x="259" y="26" type="line"/>
			<point x="195" y="33" type="line" smooth="yes"/>
			<point x="181" y="35"/>
			<point x="175" y="43"/>
			<point x="175" y="57" type="curve"/>
			<point x="176" y="317" type="line"/>
			<point x="409" y="317" type="line"/>
			<point x="409" y="89" type="line" smooth="yes"/>
			<point x="409" y="61"/>
			<point x="404" y="35"/>
			<point x="376" y="30" type="curve"/>
			<point x="350" y="25" type="line"/>
			<point x="350" y="0" type="line"/>
			<point x="545" y="0" type="line"/>
		</contour>
		<contour>
			<point x="409" y="372" type="line"/>
			<point x="175" y="372" type="line"/>
			<point x="170" y="467"/>
			<point x="176" y="549"/>
			<point x="187" y="588" type="curve"/>
			<point x="200" y="634"/>
			<point x="242" y="655"/>
			<point x="257" y="655" type="curve"/>
			<point x="268" y="655"/>
			<point x="364" y="648"/>
			<point x="407" y="599" type="curve"/>
			<point x="408" y="582"/>
			<point x="409" y="559"/>
			<point x="409" y="542" type="curve"/>
		</contour>
	</outline>
</glyph>
<glyph name="l_strok" format="2">
	<advance width="365"/>
	<outline>
		<contour>
			<point x="360" y="543" type="curve"/>
			<point x="360" y="543" type="line"/>
			<point x="360" y="622"/>
			<point x="295" y="653"/>
			<point x="263" y="690" type="curve"/>
			<point x="178" y="617" type="line"/>
			<point x="191" y="599" type="line"/>
			<point x="251" y="630"/>
			<point x="294" y="569"/>
			<point x="294" y="519" type="curve"/>
			<point x="294" y="435"/>
			<point x="248" y="382"/>
			<point x="153" y="334" type="curve"/>
			<point x="153" y="421"/>
			<point x="153" y="509"/>
			<point x="154" y="572" type="curve"/>
			<point x="155" y="634"/>
			<point x="157" y="644"/>
			<point x="164" y="701" type="curve"/>
			<point x="151" y="710" type="line"/>
			<point x="105" y="679"/>
			<point x="50" y="648"/>
			<point x="10" y="630" type="curve"/>
			<point x="13" y="603" type="line"/>
			<point x="66" y="608"/>
			<point x="68" y="601"/>
			<point x="70" y="553" type="curve"/>
			<point x="75" y="411"/>
			<point x="76" y="200"/>
			<point x="72" y="57" type="curve"/>
			<point x="71" y="21"/>
			<point x="65" y="22"/>
			<point x="35" y="9" type="curve"/>
			<point x="35" y="-16" type="line"/>
			<point x="85" y="-10"/>
			<point x="151" y="2"/>
			<point x="217" y="1" type="curve"/>
			<point x="217" y="29" type="line"/>
			<point x="175" y="31"/>
			<point x="156" y="30"/>
			<point x="155" y="63" type="curve"/>
			<point x="154" y="110"/>
			<point x="153" y="206"/>
			<point x="153" y="308" type="curve"/>
			<point x="263" y="344"/>
			<point x="360" y="419"/>
		</contour>
	</outline>
</glyph>
<glyph name="longs_longs" format="2">
	<advance width="588"/>
	<anchor x="464" y="397" name="top"/>
	<anchor x="464" y="25" name="bottom"/>
	<outline>
		<contour>
			<point x="638" y="710" type="curve" smooth="yes"/>
			<point x="563" y="710"/>
			<point x="510" y="675"/>
			<point x="478" y="645" type="curve"/>
			<point x="478" y="647" type="line"/>
			<point x="439" y="672"/>
			<point x="382" y="700"/>
			<point x="325" y="700" type="curve" smooth="yes"/>
			<point x="287" y="700"/>
			<point x="222" y="679"/>
			<point x="182" y="656" type="curve" smooth="yes"/>
			<point x="140" y="632"/>
			<point x="106" y="597"/>
			<point x="103" y="588" type="curve" smooth="yes"/>
			<point x="86" y="537"/>
			<point x="92" y="442"/>
			<point x="90" y="377" type="curve"/>
			<point x="23" y="341" type="line"/>
			<point x="23" y="317" type="line"/>
			<point x="87" y="317" type="line"/>
			<point x="86" y="56" type="line" smooth="yes"/>
			<point x="86" y="42"/>
			<point x="78" y="34"/>
			<point x="64" y="32" type="curve" smooth="yes"/>
			<point x="15" y="25" type="line"/>
			<point x="15" y="0" type="line"/>
			<point x="254" y="0" type="line"/>
			<point x="254" y="25" type="line"/>
			<point x="190" y="32" type="line" smooth="yes"/>
			<point x="176" y="34"/>
			<point x="170" y="42"/>
			<point x="170" y="56" type="curve" smooth="yes"/>
			<point x="170" y="213"/>
			<point x="168" y="541"/>
			<point x="178" y="588" type="curve" smooth="yes"/>
			<point x="188" y="634"/>
			<point x="232" y="652"/>
			<point x="267" y="652" type="curve" smooth="yes"/>
			<point x="305" y="652"/>
			<point x="419" y="647"/>
			<point x="417" y="545" type="curve" smooth="yes"/>
			<point x="414" y="377" type="line"/>
			<point x="349" y="341" type="line"/>
			<point x="349" y="317" type="line"/>
			<point x="413" y="317" type="line"/>
			<point x="412" y="54" type="line" smooth="yes"/>
			<point x="412" y="40"/>
			<point x="404" y="32"/>
			<point x="390" y="30" type="curve" smooth="yes"/>
			<point x="341" y="23" type="line"/>
			<point x="341" y="0" type="line"/>
			<point x="580" y="0" type="line"/>
			<point x="580" y="23" type="line"/>
			<point x="516" y="30" type="line" smooth="yes"/>
			<point x="502" y="32"/>
			<point x="496" y="40"/>
			<point x="496" y="54" type="curve" smooth="yes"/>
			<point x="496" y="212"/>
			<point x="494" y="544"/>
			<point x="504" y="615" type="curve" smooth="yes"/>
			<point x="507" y="637"/>
			<point x="556" y="660"/>
			<point x="588" y="660" type="curve" smooth="yes"/>
			<point x="627" y="660"/>
			<point x="647" y="647"/>
			<point x="677" y="629" type="curve"/>
			<point x="693" y="644"/>
			<point x="712" y="669"/>
			<point x="713" y="689" type="curve"/>
			<point x="702" y="699"/>
			<point x="674" y="710"/>
		</contour>
	</outline>
</glyph>
<glyph name="longs_strok" format="2">
	<advance width="392"/>
	<anchor x="138" y="397" name="top"/>
	<anchor x="138" y="25" name="bottom"/>
	<outline>
		<contour>
			<point x="235" y="403" type="curve"/>
			<point x="235" y="403" type="line"/>
			<point x="215" y="396"/>
			<point x="190" y="381"/>
			<point x="169" y="370" type="curve"/>
			<point x="170" y="498"/>
			<point x="173" y="616"/>
			<point x="183" y="629" type="curve"/>
			<point x="197" y="647"/>
			<point x="220" y="660"/>
			<point x="252" y="660" type="curve"/>
			<point x="291" y="660"/>
			<point x="321" y="647"/>
			<point x="351" y="629" type="curve"/>
			<point x="369" y="647"/>
			<point x="382" y="669"/>
			<point x="387" y="689" type="curve"/>
			<point x="384" y="704"/>
			<point x="348" y="710"/>
			<point x="312" y="710" type="curve"/>
			<point x="234" y="710"/>
			<point x="185" y="672"/>
			<point x="153" y="642" type="curve"/>
			<point x="125" y="615"/>
			<point x="104" y="592"/>
			<point x="101" y="583" type="curve"/>
			<point x="84" y="532"/>
			<point x="90" y="437"/>
			<point x="88" y="372" type="curve"/>
			<point x="33" y="372" type="line"/>
			<point x="33" y="346" type="line"/>
			<point x="87" y="317" type="line"/>
			<point x="86" y="150" type="line"/>
			<point x="65" y="139"/>
			<point x="43" y="129"/>
			<point x="22" y="119" type="curve"/>
			<point x="16" y="73" type="line"/>
			<point x="38" y="72" type="line"/>
			<point x="44" y="83"/>
			<point x="61" y="97"/>
			<point x="86" y="114" type="curve"/>
			<point x="86" y="54" type="line" smooth="yes"/>
			<point x="86" y="40"/>
			<point x="78" y="32"/>
			<point x="64" y="30" type="curve"/>
			<point x="15" y="23" type="line"/>
			<point x="15" y="0" type="line"/>
			<point x="254" y="0" type="line"/>
			<point x="254" y="23" type="line"/>
			<point x="190" y="30" type="line" smooth="yes"/>
			<point x="176" y="32"/>
			<point x="170" y="40"/>
			<point x="170" y="54" type="curve"/>
			<point x="170" y="73"/>
			<point x="170" y="114"/>
			<point x="169" y="166" type="curve"/>
			<point x="260" y="221"/>
			<point x="365" y="286"/>
			<point x="365" y="333" type="curve"/>
			<point x="365" y="386"/>
			<point x="274" y="403"/>
		</contour>
		<contour>
			<point x="169" y="195" type="curve"/>
			<point x="169" y="195" type="line"/>
			<point x="169" y="343" type="line"/>
			<point x="239" y="370"/>
			<point x="290" y="360"/>
			<point x="290" y="314" type="curve"/>
			<point x="290" y="278"/>
			<point x="237" y="236"/>
		</contour>
	</outline>
</glyph>
<glyph name="longs_t" format="2">
	<advance width="566"/>
	<anchor x="437" y="211" name="center"/>
	<anchor x="138" y="397" name="top"/>
	<anchor x="556" y="397" name="topright"/>
	<anchor x="138" y="25" name="bottom"/>
	<outline>
		<contour>
			<point x="449" y="130" type="curve"/>
			<point x="449" y="130" type="line"/>
			<point x="449" y="354" type="line"/>
			<point x="553" y="354" type="line"/>
			<point x="556" y="390" type="line"/>
			<point x="450" y="390" type="line"/>
			<point x="454" y="674" type="line"/>
			<point x="445" y="690"/>
			<point x="425" y="699"/>
			<point x="400" y="704" type="curve"/>
			<point x="386" y="708"/>
			<point x="365" y="710"/>
			<point x="345" y="710" type="curve"/>
			<point x="267" y="710"/>
			<point x="185" y="672"/>
			<point x="153" y="642" type="curve"/>
			<point x="125" y="615"/>
			<point x="104" y="592"/>
			<point x="101" y="583" type="curve"/>
			<point x="84" y="532"/>
			<point x="90" y="437"/>
			<point x="88" y="372" type="curve"/>
			<point x="33" y="372" type="line"/>
			<point x="33" y="346" type="line"/>
			<point x="87" y="317" type="line"/>
			<point x="86" y="54" type="line" smooth="yes"/>
			<point x="86" y="40"/>
			<point x="78" y="32"/>
			<point x="64" y="30" type="curve"/>
			<point x="15" y="23" type="line"/>
			<point x="15" y="0" type="line"/>
			<point x="254" y="0" type="line"/>
			<point x="254" y="23" type="line"/>
			<point x="190" y="30" type="line" smooth="yes"/>
			<point x="176" y="32"/>
			<point x="170" y="40"/>
			<point x="170" y="54" type="curve"/>
			<point x="170" y="136"/>
			<point x="168" y="573"/>
			<point x="182" y="603" type="curve"/>
			<point x="196" y="634"/>
			<point x="221" y="669"/>
			<point x="277" y="669" type="curve"/>
			<point x="326" y="669"/>
			<point x="350" y="658"/>
			<point x="377" y="642" type="curve"/>
			<point x="383" y="573"/>
			<point x="382" y="516"/>
			<point x="380" y="456" type="curve"/>
			<point x="378" y="407"/>
			<point x="371" y="396"/>
			<point x="342" y="376" type="curve"/>
			<point x="337" y="373"/>
			<point x="332" y="370"/>
			<point x="326" y="368" type="curve"/>
			<point x="326" y="354" type="line"/>
			<point x="369" y="354" type="line"/>
			<point x="369" y="75" type="line" smooth="yes"/>
			<point x="369" y="30"/>
			<point x="411" y="-10"/>
			<point x="435" y="-10" type="curve"/>
			<point x="477" y="-10"/>
			<point x="514" y="13"/>
			<point x="554" y="37" type="curve"/>
			<point x="551" y="58" type="line"/>
			<point x="448" y="46"/>
			<point x="449" y="63"/>
		</contour>
	</outline>
</glyph>
<glyph name="p_macr" format="2">
	<advance width="496"/>
	<anchor x="239" y="397" name="top"/>
	<anchor x="239" y="25" name="bottom"/>
	<outline>
		<contour>
			<point x="33" y="507" type="curve"/>
			<point x="56" y="495" type="line"/>
			<point x="70" y="502"/>
			<point x="111" y="533"/>
			<point x="133" y="533" type="curve"/>
			<point x="164" y="533"/>
			<point x="230" y="512"/>
			<point x="269" y="512" type="curve"/>
			<point x="275" y="512"/>
			<point x="355" y="584"/>
			<point x="376" y="607" type="curve"/>
			<point x="351" y="620" type="line"/>
			<point x="339" y="615"/>
			<point x="295" y="579"/>
			<point x="274" y="579" type="curve"/>
			<point x="242" y="579"/>
			<point x="181" y="596"/>
			<point x="141" y="596" type="curve"/>
			<point x="135" y="596"/>
			<point x="47" y="530"/>
		</contour>
		<contour>
			<point x="11" y="-276" type="line"/>
			<point x="11" y="-300" type="line"/>
			<point x="227" y="-300" type="line"/>
			<point x="227" y="-272" type="line"/>
			<point x="171" y="-263" type="line" smooth="yes"/>
			<point x="150" y="-260"/>
			<point x="143" y="-259"/>
			<point x="143" y="-243" type="curve"/>
			<point x="143" y="-9" type="line"/>
			<point x="162" y="2"/>
			<point x="223" y="1"/>
			<point x="247" y="1" type="curve"/>
			<point x="349" y="1"/>
			<point x="471" y="72"/>
			<point x="471" y="200" type="curve"/>
			<point x="471" y="330"/>
			<point x="378" y="399"/>
			<point x="273" y="399" type="curve"/>
			<point x="227" y="399"/>
			<point x="173" y="368"/>
			<point x="144" y="338" type="curve"/>
			<point x="131" y="398" type="line"/>
			<point x="112" y="405" type="line"/>
			<point x="81" y="388"/>
			<point x="44" y="374"/>
			<point x="10" y="356" type="curve"/>
			<point x="10" y="329" type="line"/>
			<point x="52" y="329"/>
			<point x="58" y="306"/>
			<point x="59" y="265" type="curve"/>
			<point x="63" y="106"/>
			<point x="64" y="-47"/>
			<point x="59" y="-206" type="curve"/>
			<point x="58" y="-238"/>
			<point x="54" y="-263"/>
			<point x="27" y="-271" type="curve"/>
		</contour>
		<contour>
			<point x="235" y="38" type="curve"/>
			<point x="235" y="38" type="line"/>
			<point x="195" y="38"/>
			<point x="166" y="41"/>
			<point x="143" y="46" type="curve"/>
			<point x="144" y="297" type="line"/>
			<point x="166" y="327"/>
			<point x="203" y="347"/>
			<point x="245" y="347" type="curve"/>
			<point x="329" y="347"/>
			<point x="389" y="288"/>
			<point x="389" y="192" type="curve"/>
			<point x="389" y="98"/>
			<point x="316" y="38"/>
		</contour>
	</outline>
</glyph>
<glyph name="q_etfin" format="2">
	<advance width="631"/>
	<anchor x="248" y="397" name="top"/>
	<anchor x="248" y="25" name="bottom"/>
	<outline>
		<contour>
			<point x="428" y="-206" type="curve" smooth="yes"/>
			<point x="428" y="284" type="line" smooth="yes"/>
			<point x="428" y="325"/>
			<point x="433" y="370"/>
			<point x="439" y="408" type="curve"/>
			<point x="416" y="416" type="line"/>
			<point x="376" y="376" type="line"/>
			<point x="328" y="397"/>
			<point x="267" y="400"/>
			<point x="221" y="400" type="curve" smooth="yes"/>
			<point x="200" y="400"/>
			<point x="69" y="315"/>
			<point x="52" y="286" type="curve" smooth="yes"/>
			<point x="35" y="258"/>
			<point x="25" y="215"/>
			<point x="25" y="176" type="curve" smooth="yes"/>
			<point x="25" y="49"/>
			<point x="106" y="-9"/>
			<point x="212" y="-9" type="curve" smooth="yes"/>
			<point x="237" y="-9"/>
			<point x="303" y="43"/>
			<point x="348" y="79" type="curve"/>
			<point x="349" y="-221" type="line" smooth="yes"/>
			<point x="349" y="-256"/>
			<point x="341" y="-256"/>
			<point x="320" y="-261" type="curve" smooth="yes"/>
			<point x="273" y="-272" type="line"/>
			<point x="273" y="-300" type="line"/>
			<point x="476" y="-300" type="line"/>
			<point x="476" y="-272" type="line"/>
			<point x="460" y="-266" type="line" smooth="yes"/>
			<point x="434" y="-256"/>
			<point x="428" y="-233"/>
		</contour>
		<contour>
			<point x="533" y="207" type="curve"/>
			<point x="557" y="245"/>
			<point x="599" y="294"/>
			<point x="599" y="311" type="curve" smooth="yes"/>
			<point x="599" y="342"/>
			<point x="573" y="380"/>
			<point x="519" y="380" type="curve"/>
			<point x="469" y="327" type="line"/>
			<point x="469" y="314" type="line"/>
			<point x="489" y="314"/>
			<point x="518" y="293"/>
			<point x="518" y="255" type="curve" smooth="yes"/>
			<point x="518" y="206"/>
			<point x="471" y="172"/>
			<point x="429" y="161" type="curve"/>
			<point x="436" y="133" type="line"/>
			<point x="443" y="138"/>
			<point x="465" y="143"/>
			<point x="469" y="143" type="curve" smooth="yes"/>
			<point x="508" y="143"/>
			<point x="555" y="123"/>
			<point x="555" y="64" type="curve" smooth="yes"/>
			<point x="555" y="30"/>
			<point x="512" y="-4"/>
			<point x="484" y="-31" type="curve"/>
			<point x="508" y="-53" type="line"/>
			<point x="552" y="-5"/>
			<point x="626" y="72"/>
			<point x="626" y="108" type="curve" smooth="yes"/>
			<point x="626" y="163"/>
			<point x="586" y="190"/>
		</contour>
		<contour>
			<point x="228" y="60" type="curve" smooth="yes"/>
			<point x="152" y="60"/>
			<point x="94" y="109"/>
			<point x="94" y="202" type="curve" smooth="yes"/>
			<point x="94" y="282"/>
			<point x="155" y="345"/>
			<point x="226" y="345" type="curve" smooth="yes"/>
			<point x="301" y="345"/>
			<point x="343" y="279"/>
			<point x="348" y="196" type="curve"/>
			<point x="348" y="125" type="line"/>
			<point x="319" y="88"/>
			<point x="277" y="60"/>
		</contour>
	</outline>
</glyph>
<glyph name="q_strok" format="2">
	<advance width="705"/>
	<anchor x="248" y="397" name="top"/>
	<anchor x="248" y="25" name="bottom"/>
	<outline>
		<contour>
			<point x="680" y="209" type="curve"/>
			<point x="680" y="209" type="line"/>
			<point x="680" y="274"/>
			<point x="605" y="346"/>
			<point x="538" y="346" type="curve"/>
			<point x="528" y="346"/>
			<point x="472" y="305"/>
			<point x="428" y="269" type="curve"/>
			<point x="428" y="284" type="line" smooth="yes"/>
			<point x="428" y="325"/>
			<point x="433" y="370"/>
			<point x="439" y="408" type="curve"/>
			<point x="416" y="416" type="line"/>
			<point x="376" y="376" type="line"/>
			<point x="328" y="397"/>
			<point x="267" y="400"/>
			<point x="221" y="400" type="curve"/>
			<point x="200" y="400"/>
			<point x="69" y="315"/>
			<point x="52" y="286" type="curve"/>
			<point x="35" y="258"/>
			<point x="25" y="215"/>
			<point x="25" y="176" type="curve"/>
			<point x="25" y="49"/>
			<point x="106" y="-9"/>
			<point x="212" y="-9" type="curve"/>
			<point x="237" y="-9"/>
			<point x="303" y="43"/>
			<point x="348" y="79" type="curve"/>
			<point x="349" y="-119" type="line"/>
			<point x="288" y="-165"/>
			<point x="220" y="-214"/>
			<point x="149" y="-265" type="curve"/>
			<point x="167" y="-293" type="line"/>
			<point x="221" y="-255"/>
			<point x="285" y="-210"/>
			<point x="349" y="-162" type="curve"/>
			<point x="349" y="-221" type="line" smooth="yes"/>
			<point x="349" y="-256"/>
			<point x="341" y="-256"/>
			<point x="320" y="-261" type="curve"/>
			<point x="273" y="-272" type="line"/>
			<point x="273" y="-300" type="line"/>
			<point x="476" y="-300" type="line"/>
			<point x="476" y="-272" type="line"/>
			<point x="460" y="-266" type="line" smooth="yes"/>
			<point x="434" y="-256"/>
			<point x="428" y="-233"/>
			<point x="428" y="-206" type="curve"/>
			<point x="428" y="-101" type="line"/>
			<point x="563" y="8"/>
			<point x="680" y="124"/>
		</contour>
		<contour>
			<point x="228" y="60" type="curve"/>
			<point x="228" y="60" type="line"/>
			<point x="152" y="60"/>
			<point x="94" y="109"/>
			<point x="94" y="202" type="curve"/>
			<point x="94" y="282"/>
			<point x="155" y="345"/>
			<point x="226" y="345" type="curve"/>
			<point x="301" y="345"/>
			<point x="343" y="279"/>
			<point x="348" y="196" type="curve"/>
			<point x="348" y="125" type="line"/>
			<point x="319" y="88"/>
			<point x="277" y="60"/>
		</contour>
		<contour>
			<point x="428" y="-55" type="curve"/>
			<point x="428" y="233" type="line"/>
			<point x="453" y="256"/>
			<point x="469" y="258"/>
			<point x="498" y="258" type="curve"/>
			<point x="537" y="258"/>
			<point x="583" y="231"/>
			<point x="583" y="180" type="curve"/>
			<point x="583" y="102"/>
			<point x="522" y="26"/>
		</contour>
	</outline>
</glyph>
<glyph name="us" format="2">
	<advance width="399"/>
	<outline>
		<contour>
			<point x="168" y="711" type="curve" smooth="yes"/>
			<point x="104" y="711"/>
			<point x="10" y="606"/>
			<point x="10" y="517" type="curve" smooth="yes"/>
			<point x="10" y="434"/>
			<point x="75" y="357"/>
			<point x="166" y="348" type="curve"/>
			<point x="286" y="390" type="line"/>
			<point x="267" y="245"/>
			<point x="174" y="152"/>
			<point x="98" y="65" type="curve"/>
			<point x="97" y="-9" type="line"/>
			<point x="123" y="-9" type="line"/>
			<point x="144" y="55"/>
			<point x="374" y="332"/>
			<point x="374" y="498" type="curve" smooth="yes"/>
			<point x="374" y="631"/>
			<point x="289" y="711"/>
		</contour>
		<contour>
			<point x="220" y="407" type="curve" smooth="yes"/>
			<point x="147" y="407"/>
			<point x="75" y="478"/>
			<point x="75" y="575" type="curve" smooth="yes"/>
			<point x="75" y="614"/>
			<point x="97" y="651"/>
			<point x="144" y="651" type="curve" smooth="yes"/>
			<point x="227" y="651"/>
			<point x="289" y="542"/>
			<point x="289" y="442" type="curve" smooth="yes"/>
			<point x="289" y="425" type="line"/>
			<point x="271" y="416"/>
			<point x="249" y="407"/>
		</contour>
	</outline>
</glyph>
<glyph name="v.ss01" format="2">
	<advance width="429"/>
	<outline>
		<contour>
			<point x="36" y="312" type="curve"/>
			<point x="195" y="0" type="line"/>
			<point x="223" y="0" type="line"/>
			<point x="380" y="310" type="line" smooth="yes"/>
			<point x="389" y="328"/>
			<point x="407" y="352"/>
			<point x="424" y="362" type="curve"/>
			<point x="424" y="389" type="line"/>
			<point x="293" y="389" type="line"/>
			<point x="293" y="362" type="line"/>
			<point x="333" y="357"/>
			<point x="346" y="345"/>
			<point x="335" y="321" type="curve"/>
			<point x="234" y="93" type="line"/>
			<point x="126" y="324" type="line" smooth="yes"/>
			<point x="114" y="349"/>
			<point x="135" y="361"/>
			<point x="178" y="361" type="curve"/>
			<point x="178" y="389" type="line"/>
			<point x="-5" y="389" type="line"/>
			<point x="-5" y="361" type="line"/>
			<point x="21" y="347"/>
			<point x="30" y="323"/>
		</contour>
	</outline>
</glyph>
